<svg width="113" height="113" viewBox="0 0 113 113" fill="none" xmlns="http://www.w3.org/2000/svg">
<circle cx="56.5" cy="52.5" r="52.5" fill="#9EE8E8"/>
<g filter="url(#filter0_d)">
<path d="M109 89.0072V104.801H4V89.0072C4 84.8291 6.55937 81.0643 10.4509 79.5572L32.5906 70.851L49.8719 89.8406L55.2948 78.7937V78.7717L56.5 76.2979L57.7272 78.7719L63.1521 89.8406L80.4092 70.851L102.571 79.5572C106.441 81.0885 109 84.8291 109 89.0072Z" fill="#F2F2F2"/>
<path d="M71.9875 67.5697H72.0094V58.5791C70.861 60.3204 69.5266 62.0878 67.9758 63.8554L65.8321 66.2179C63.8633 68.3595 61.0634 69.6084 58.154 69.6084H54.8727C51.9633 69.6084 49.1611 68.3616 47.1946 66.2179L45.0509 63.8554C43.4825 62.0726 42.1328 60.2811 40.9799 58.5223V67.5546L41.015 67.572L54.5118 75.1845L56.5025 76.3001L58.4932 75.1845L71.9875 67.5697Z" fill="#FED19A" fill-opacity="0.33"/>
<g opacity="0.1">
<g opacity="0.1">
<path opacity="0.1" d="M50.9678 68.8078C50.9547 68.8035 50.9415 68.799 50.9284 68.7947C50.9065 68.7859 50.8825 68.7793 50.8605 68.7727C50.8386 68.7619 50.8146 68.7596 50.784 68.7487L59.0331 74.8759L71.9875 67.5695H72.0006L72.0094 58.6249C71.9875 58.6577 68.9339 62.6585 67.9757 63.8509L65.8321 66.2156C63.8633 68.3572 61.0634 69.6062 58.1539 69.6062H54.8727C54.2099 69.6062 53.5602 69.534 52.9236 69.3984C52.2497 69.2694 51.6 69.068 50.9678 68.8078Z" fill="#40596B"/>
</g>
</g>
<path d="M41.1481 40.2587C41.4893 44.1853 39.5839 47.5605 36.8933 47.7924C34.1984 48.0287 31.7374 45.0339 31.3896 41.1075C31.0484 37.1809 32.9537 33.81 35.6487 33.5738C38.3416 33.3375 40.8068 36.33 41.1481 40.2587Z" fill="#FED19A"/>
<path d="M81.6301 41.1118C81.2888 45.0384 78.8236 48.0309 76.1307 47.7947C73.4358 47.5584 71.5281 44.1876 71.8759 40.2609C72.2172 36.3343 74.6824 33.3398 77.3753 33.576C80.0703 33.8077 81.9756 37.1831 81.6301 41.1118Z" fill="#FED19A"/>
<path d="M78.8234 40.2718C78.4099 44.6687 76.3274 54.3572 67.9756 63.8509L65.8319 66.2134C63.8631 68.357 61.0632 69.6062 58.1537 69.6062H54.8725C51.9631 69.6062 49.1609 68.3593 47.1944 66.2134L45.0507 63.8509C36.6944 54.3572 34.6383 44.6664 34.1986 40.2718C33.608 34.2124 33.8485 26.5125 34.1986 24.5218C36.1893 12.8625 46.1663 5.6218 56.5133 5.6218C66.8581 5.6218 76.8331 12.8625 78.8236 24.5218C79.1734 26.5125 79.414 34.2146 78.8234 40.2718Z" fill="#FED19A"/>
<path d="M39.4572 11.1497C39.4572 11.1497 39.6104 -3.57882 61.0238 1.12649C61.0238 1.12649 71.6485 4.46455 78.4844 14.3391C78.4844 14.3391 84.8982 23.6535 81.4112 31.4891C80.2782 34.0331 79.0619 36.9448 79.2019 39.2831C79.2019 39.2831 78.0141 34.3196 77.3054 30.1832C76.7125 26.7182 75.2208 23.472 72.9304 20.8076L72.8626 20.7266C69.1547 16.4325 63.3512 14.4244 57.8629 15.8398C55.2445 16.5158 52.2651 17.8348 48.9882 20.1733C48.9882 20.1733 40.0675 14.1861 35.6575 24.6664C35.6575 24.6664 33.6931 32.3271 33.9709 38.3777C33.9709 38.3752 21.6925 12.6679 39.4572 11.1497Z" fill="#40596B"/>
<path d="M85.7447 76.9759C85.7011 76.6041 85.6157 73.1936 84.9156 71.8155C83.7321 69.4946 81.6124 67.9436 79.053 67.5499L72.0092 66.1281V67.5718H71.9873L70.9789 68.1405L78.703 69.7155C80.5624 69.9999 82.1177 71.1156 82.9467 72.7976C83.4936 73.8696 83.7167 75.0311 83.5395 76.1685L83.4936 76.7372C74.2405 84.7654 71.6155 92.0058 71.5062 92.334C70.8105 94.412 70.8522 96.0527 71.6177 97.2339C72.4731 98.5683 73.8687 98.7213 74.0436 98.7433L74.2624 96.5557C74.2405 96.5557 73.7155 96.4661 73.4333 96.0088C73.0832 95.4378 73.1248 94.3901 73.5865 93.0534C73.6084 93.0074 74.899 89.4463 78.8365 84.6294C79.9302 84.0824 81.153 83.9754 82.3365 84.3232C83.4741 84.6733 84.4343 85.4411 85.0272 86.4648C85.4625 92.7888 84.5022 96.5077 84.4802 96.5295C84.0625 97.8856 83.4936 98.7826 82.8615 99.0232C82.3585 99.2441 81.8969 99.0013 81.8969 98.9795L81.3499 99.9399L80.7812 100.887C80.8709 100.953 81.5468 101.325 82.4438 101.325C82.8156 101.325 83.2139 101.259 83.6273 101.084C84.9398 100.583 85.9482 99.2685 86.6001 97.1685C86.6897 96.8406 88.7219 89.2041 85.7447 76.9759ZM82.8396 82.6416C82.1811 82.4447 81.4812 82.3594 80.8227 82.3813C81.7677 81.351 82.8134 80.3033 83.9967 79.2336C84.3248 80.7626 84.5653 82.2283 84.7405 83.6085C84.1718 83.1885 83.5352 82.8624 82.8396 82.6416Z" fill="#ACB3BA"/>
<path d="M75.9687 98.0349C75.7937 98.9143 74.9383 99.4875 74.059 99.3146C73.1839 99.1417 73.8073 95.9546 74.6867 96.1275C75.5663 96.3004 76.1415 97.1556 75.9687 98.0349Z" fill="#F8B64C"/>
<path d="M79.5147 99.1288C79.1428 99.9448 79.4972 100.907 80.313 101.281C81.129 101.655 82.483 98.7045 81.6672 98.3282C80.8577 97.9541 79.891 98.3128 79.5147 99.1288Z" fill="#F8B64C"/>
<path d="M41.0125 67.5698L40.9774 67.5523V66.126L36.2481 67.0995C31.2016 68.1386 26.9556 71.3586 24.5888 75.9304C22.2263 80.5067 22.0557 85.8354 24.1272 90.5516L26.131 89.6723C24.3286 85.5641 24.4684 80.9244 26.5336 76.9367C28.5919 72.9555 32.2932 70.1488 36.6858 69.2454L42.0299 68.1452L41.0125 67.5698Z" fill="#ACB3BA"/>
<path d="M80.4095 70.851L64.2678 92.0259L56.5 76.2979L58.4907 75.1823L71.9875 67.5698H72.0095L72.0312 67.5478L80.4095 70.851Z" fill="#CDD6E0"/>
<path d="M32.5906 70.851L48.7585 92.0259L56.5 76.2979L54.5093 75.1823L41.0125 67.5698L40.9688 67.5478L32.5906 70.851Z" fill="#CDD6E0"/>
<path d="M48.7585 104.801L53.175 94.7385L51.2697 91.9384L49.8741 89.8384L55.2947 78.7719L56.5 76.2979L57.7272 78.7719V78.7937L63.1521 89.8384L61.7303 91.9187L59.8249 94.7385L64.2677 104.801H48.7585Z" fill="#334A5E"/>
<path d="M63.1521 89.8384L61.7303 91.9187L56.522 81.2634L51.2697 91.9384L49.8741 89.8384L55.2948 78.7719L56.5 76.2979L57.7272 78.7719V78.7937L63.1521 89.8384Z" fill="#2A4356"/>
<path d="M31.7069 93.9773C31.7069 96.7116 29.4844 98.932 26.7499 98.932C24.0154 98.932 21.7975 96.7116 21.7975 93.9773C21.7975 91.2429 24.0156 89.0248 26.7499 89.0248C29.4842 89.0248 31.7069 91.2427 31.7069 93.9773Z" fill="#FF7058"/>
<path d="M30.0794 93.9773C30.0794 95.8148 28.5919 97.3044 26.7544 97.3044C24.9126 97.3044 23.4229 95.8125 23.4229 93.9773C23.4229 92.142 24.9149 90.6501 26.7544 90.6501C28.5919 90.6501 30.0794 92.1398 30.0794 93.9773Z" fill="#F2F2F2"/>
<path d="M29.0841 93.9773C29.0841 95.2678 28.0407 96.3092 26.7567 96.3092C25.4661 96.3092 24.4204 95.2658 24.4204 93.9773C24.4204 92.691 25.4682 91.6476 26.7567 91.6476C28.0407 91.6476 29.0841 92.691 29.0841 93.9773Z" fill="#ACB3BA"/>
</g>
<defs>
<filter id="filter0_d" x="0" y="0" width="113" height="113" filterUnits="userSpaceOnUse" color-interpolation-filters="sRGB">
<feFlood flood-opacity="0" result="BackgroundImageFix"/>
<feColorMatrix in="SourceAlpha" type="matrix" values="0 0 0 0 0 0 0 0 0 0 0 0 0 0 0 0 0 0 127 0"/>
<feOffset dy="4"/>
<feGaussianBlur stdDeviation="2"/>
<feColorMatrix type="matrix" values="0 0 0 0 0 0 0 0 0 0 0 0 0 0 0 0 0 0 0.25 0"/>
<feBlend mode="normal" in2="BackgroundImageFix" result="effect1_dropShadow"/>
<feBlend mode="normal" in="SourceGraphic" in2="effect1_dropShadow" result="shape"/>
</filter>
</defs>
</svg>
