<svg width="44" height="45" viewBox="0 0 44 45" fill="none" xmlns="http://www.w3.org/2000/svg">
<defs>
<radialGradient id="paint0_radial" cx="0" cy="0" r="1" gradientUnits="userSpaceOnUse" gradientTransform="translate(19 12) rotate(90) scale(32)">
<stop stop-color="#4F26F4"/>
<stop offset="1" stop-color="#AB9BE8"/>
</radialGradient>
</defs>
<circle cx="19" cy="28" r="16" fill="url(#paint0_radial)"/>
<path d="M36.8005 26.4136L34.3164 26.0648C35.455 17.9567 29.784 10.4327 21.6759 9.29408L22.0239 6.81059C31.5023 8.14319 38.1292 16.9354 36.8005 26.4136ZM21.4206 11.1011L21.0704 13.5835C26.8145 14.3901 30.8315 19.7195 30.0248 25.4637L32.5094 25.8095C33.5068 18.7015 28.5307 12.0995 21.4206 11.1011ZM20.7992 15.5317L20.451 18.0167C23.7507 18.4786 26.0606 21.5432 25.5957 24.8425L28.0798 25.1913C28.7341 20.521 25.4671 16.1865 20.7992 15.5317ZM6.24088 25.1594C7.481 27.1151 8.78641 29.0257 10.146 30.8982L10.1374 30.9047C10.1761 30.9544 10.2162 31.0003 10.2541 31.0507C10.2927 31.1018 10.3259 31.153 10.3616 31.2023L10.3712 31.1951C11.7967 33.0178 13.2752 34.8007 14.813 36.5306C18.8341 41.0626 25.0377 41.4086 28.1274 37.7768C28.2656 37.6209 28.4343 37.491 28.5408 37.3128C29.1618 36.2545 29.3836 34.9896 29.8293 33.843C30.391 32.3722 23.8257 28.4386 22.9543 30.242C22.6352 30.9123 21.9919 33.0798 21.4689 33.6005C21.0025 34.0663 20.0751 33.684 19.5431 33.0865C18.1399 31.5081 16.6443 29.2675 15.3092 27.4745L15.3118 27.4726C15.2758 27.4248 15.2364 27.3743 15.1991 27.3249C15.1618 27.2754 15.1235 27.2227 15.0882 27.1759L15.0847 27.1785C13.7288 25.4012 11.9868 23.3463 10.8559 21.5626C10.4274 20.8858 10.3147 19.8881 10.8922 19.5698C11.5368 19.2104 13.7976 19.189 14.5299 19.0669C16.5036 18.7259 14.5282 11.3299 12.9617 11.466C11.7361 11.5777 10.4584 11.4417 9.27123 11.7489C9.06932 11.8005 8.89778 11.9284 8.71073 12.0177C4.36771 13.9867 2.99329 20.0459 6.24088 25.1594Z" fill="#F5B74D"/>

</svg>
