<svg width="33" height="38" viewBox="0 0 33 38" fill="none" xmlns="http://www.w3.org/2000/svg">
<defs>
<radialGradient id="paint0_radial" cx="0" cy="0" r="1" gradientUnits="userSpaceOnUse" gradientTransform="translate(16 6) rotate(90) scale(32)">
<stop stop-color="#4F26F4"/>
<stop offset="1" stop-color="#AB9BE8"/>
</radialGradient>
<clipPath id="clip0">
<rect width="33" height="33" fill="white"/>
</clipPath>
</defs>
<circle cx="16" cy="22" r="16" fill="url(#paint0_radial)"/>
<g clip-path="url(#clip0)">
<path d="M20.8197 0.71936H12.1789V9.36014H20.8197V0.71936Z" fill="#FF7876"/>
<path d="M26.982 5.04004H20.8205V9.36059H12.1793V5.04004H6.0179C4.89661 5.04004 3.98763 5.94902 3.98763 7.07031V32.2808H29.0123V7.07018C29.0123 5.94896 28.1033 5.04004 26.982 5.04004Z" fill="#C6BDF2"/>
<path d="M16.4996 27.0051H11.2246V32.2801H16.4996V27.0051Z" fill="#FFDA79"/>
<path d="M21.7748 27.0051H16.4998V32.2801H21.7748V27.0051Z" fill="#FFDA79"/>
<path d="M26.982 4.32055H21.54V0.719361C21.54 0.322072 21.218 0 20.8207 0H12.1793C11.782 0 11.4599 0.322072 11.4599 0.719361V4.32062H6.01798C4.50178 4.32062 3.26834 5.55405 3.26834 7.07025V32.2807C3.26834 32.678 3.59035 33.0001 3.9877 33.0001C5.1184 33.0001 28.2789 33.0001 29.0123 33.0001C29.4096 33.0001 29.7316 32.678 29.7316 32.2807V7.07019C29.7316 5.55412 28.4981 4.32055 26.982 4.32055ZM12.8987 1.43866H20.1013C20.1013 2.48383 20.1013 7.59741 20.1013 8.64123H12.8987C12.8987 7.59683 12.8987 2.48344 12.8987 1.43866ZM15.7806 31.5613H11.9443V27.725H15.7806V31.5613ZM17.2194 31.5613V27.725H21.0557V31.5613H17.2194ZM28.2929 31.5613H22.4943V27.0056C22.4943 26.6083 22.1723 26.2862 21.775 26.2862C20.223 26.2862 12.7922 26.2862 11.225 26.2862C10.8276 26.2862 10.5056 26.6083 10.5056 27.0056V31.5613H4.70706V7.07019C4.70706 6.34728 5.2952 5.75927 6.01798 5.75927H11.4599V9.36059C11.4599 9.75788 11.782 10.08 12.1793 10.08H20.8207C21.218 10.08 21.54 9.75788 21.54 9.36059V5.75927H26.982C27.7048 5.75927 28.2929 6.34734 28.2929 7.07019V31.5613Z" fill="#58595B"/>
<path d="M11.0935 12.4288H7.702C7.42162 12.4288 7.19443 12.656 7.19443 12.9363V16.3278C7.19443 16.6082 7.42162 16.8354 7.702 16.8354H11.0935C11.3738 16.8354 11.601 16.6082 11.601 16.3278V12.9363C11.601 12.656 11.3738 12.4288 11.0935 12.4288Z" fill="white"/>
<path d="M18.1958 12.4288H14.8042C14.5239 12.4288 14.2967 12.656 14.2967 12.9363V16.3278C14.2967 16.6082 14.5239 16.8354 14.8042 16.8354H18.1957C18.4761 16.8354 18.7033 16.6082 18.7033 16.3278V12.9363C18.7033 12.656 18.4761 12.4288 18.1958 12.4288Z" fill="white"/>
<path d="M25.2978 12.4288H21.9064C21.626 12.4288 21.3988 12.656 21.3988 12.9363V16.3278C21.3988 16.6082 21.626 16.8354 21.9064 16.8354H25.2978C25.5782 16.8354 25.8054 16.6082 25.8054 16.3278V12.9363C25.8054 12.656 25.5782 12.4288 25.2978 12.4288Z" fill="white"/>
<path d="M11.0935 19.5309H7.702C7.42162 19.5309 7.19443 19.7581 7.19443 20.0385V23.4299C7.19443 23.7103 7.42162 23.9375 7.702 23.9375H11.0935C11.3738 23.9375 11.601 23.7103 11.601 23.4299V20.0385C11.601 19.7582 11.3738 19.5309 11.0935 19.5309Z" fill="white"/>
<path d="M18.1958 19.5309H14.8042C14.5239 19.5309 14.2967 19.7581 14.2967 20.0385V23.4299C14.2967 23.7103 14.5239 23.9375 14.8042 23.9375H18.1957C18.4761 23.9375 18.7033 23.7103 18.7033 23.4299V20.0385C18.7033 19.7582 18.4761 19.5309 18.1958 19.5309Z" fill="white"/>
<path d="M25.2978 19.5309H21.9064C21.626 19.5309 21.3988 19.7581 21.3988 20.0385V23.4299C21.3988 23.7103 21.626 23.9375 21.9064 23.9375H25.2978C25.5782 23.9375 25.8054 23.7103 25.8054 23.4299V20.0385C25.8054 19.7582 25.5782 19.5309 25.2978 19.5309Z" fill="white"/>
<path d="M15.1229 7.25923C15.5203 7.25923 15.8423 6.93716 15.8423 6.53987V5.75928H17.1575V6.53993C17.1575 6.93722 17.4795 7.25929 17.8769 7.25929C18.2742 7.25929 18.5963 6.93722 18.5963 6.53993V3.54002C18.5963 3.14274 18.2742 2.82066 17.8769 2.82066C17.4795 2.82066 17.1575 3.14274 17.1575 3.54002V4.32068H15.8423V3.54002C15.8423 3.14274 15.5203 2.82066 15.1229 2.82066C14.7256 2.82066 14.4036 3.14274 14.4036 3.54002V6.53987C14.4036 6.93716 14.7257 7.25923 15.1229 7.25923Z" fill="#58595B"/>
</g>

</svg>
