<svg width="411" height="282" viewBox="0 0 411 282" fill="none" xmlns="http://www.w3.org/2000/svg">
<path fill-rule="evenodd" clip-rule="evenodd" d="M403.788 209.182C389.874 209.182 378.488 220.568 378.488 234.481C378.488 259.87 357.715 280.643 332.326 280.643H329.78H75.8503H21.9676C-11.0147 280.643 -38 253.658 -38 220.676C-38 187.695 -11.0139 160.71 21.9676 160.71H23.5431C30.1632 160.71 35.5771 155.293 35.5771 148.675C35.5771 142.057 30.1632 136.64 23.5431 136.64H16.9245C0.834503 136.64 -12.3307 123.477 -12.3307 107.386C-12.3307 91.3139 0.803726 78.1604 16.8686 78.1317C16.8865 78.1317 45.3949 78.1317 45.4135 78.1317C59.3287 78.1317 70.7142 66.7463 70.7142 52.831C70.7142 27.4416 91.4872 6.66934 116.875 6.66934C161.926 6.66934 307.718 6.66934 352.77 6.66934C385.752 6.66934 412.736 33.6551 412.736 66.636C412.736 99.6177 385.752 126.603 352.77 126.603C346.15 126.603 340.734 132.02 340.734 138.638C340.734 145.257 346.15 150.671 352.77 150.671H403.788C442.067 150.671 442.069 209.182 403.788 209.182Z" fill="#2D31AB"/>
<path d="M403.788 209.182C389.874 209.182 378.488 220.568 378.488 234.481C378.488 259.87 357.715 280.643 332.326 280.643H329.78H75.8503H21.9676C-11.0147 280.643 -38 253.658 -38 220.676C-38 187.695 -11.0139 160.71 21.9676 160.71H23.5431C30.1632 160.71 35.5771 155.293 35.5771 148.675C35.5771 142.057 30.1632 136.64 23.5431 136.64H16.9245C0.834502 136.64 -12.3307 123.477 -12.3307 107.386C-12.3307 91.3139 0.803728 78.1603 16.8686 78.1317C16.8865 78.1317 45.3949 78.1317 45.4135 78.1317C59.3287 78.1317 70.7142 66.7463 70.7142 52.831C70.7142 27.4416 91.4871 6.66933 116.875 6.66933C161.926 6.66933 307.718 6.66933 352.77 6.66933C385.752 6.66933 412.736 33.6551 412.736 66.636C412.736 99.6177 385.752 126.603 352.77 126.603C346.15 126.603 340.734 132.02 340.734 138.638C340.734 145.257 346.15 150.671 352.77 150.671H403.788C442.067 150.671 442.069 209.182 403.788 209.182" stroke="#E0CCCC" stroke-width="0.5"/>
<path fill-rule="evenodd" clip-rule="evenodd" d="M26.4376 281.197C29.3119 281.197 31.663 278.846 31.663 275.971V275.537C31.663 272.662 29.3119 270.312 26.4376 270.312C23.5645 270.312 21.2131 272.662 21.2131 275.537V275.971C21.2131 278.846 23.5645 281.197 26.4376 281.197ZM22.3565 245.931H441.161C445.472 245.931 449 249.458 449 253.768C449 258.077 445.474 261.605 441.161 261.605H414.723C412.327 261.605 410.368 263.563 410.368 265.958V265.96C410.368 268.352 412.327 270.312 414.723 270.312H424.396C427.387 270.312 429.838 272.763 429.838 275.754C429.838 278.745 427.389 281.197 424.396 281.197H39.9893C36.9964 281.197 34.5473 278.747 34.5473 275.754C34.5473 272.762 36.9964 270.312 39.9893 270.312H47.6087C50.0032 270.312 51.9625 268.354 51.9625 265.96V265.958C51.9625 263.563 50.0032 261.605 47.6087 261.605H22.3565C18.0461 261.605 14.5209 258.079 14.5209 253.768C14.5209 249.458 18.0489 245.931 22.3565 245.931Z" fill="#2B1535"/>
<path fill-rule="evenodd" clip-rule="evenodd" d="M403.788 173.793C389.874 173.793 378.49 185.179 378.49 199.092C378.49 224.48 357.715 245.254 332.326 245.254H329.78H75.8503H21.9676C-11.0147 245.254 -38 218.269 -38 185.287C-38 172.32 -33.826 160.282 -26.7591 150.443H431.965C429.724 162.859 420.336 173.793 403.788 173.793Z" fill="#A092CE"/>
<path fill-rule="evenodd" clip-rule="evenodd" d="M-33.4763 162.513C-30.2013 154.602 -25.2785 147.53 -19.1407 141.731H432.378C432.993 149.038 431.202 156.579 427.002 162.513H-33.4763Z" fill="#C3B3DC"/>
<path fill-rule="evenodd" clip-rule="evenodd" d="M279.303 71.0529C279.172 70.9161 279.178 70.6992 279.315 70.5697C279.45 70.4387 279.668 70.4444 279.798 70.5818C279.889 70.6763 311.796 103.495 275.253 140.038C275.12 140.173 274.903 140.173 274.769 140.038C274.634 139.905 274.634 139.686 274.769 139.552C310.835 103.486 279.392 71.1474 279.303 71.0529Z" fill="#2B1535"/>
<path fill-rule="evenodd" clip-rule="evenodd" d="M276.372 21.0443C259.359 35.2386 267.646 61.2058 281.455 74.8977C297.429 90.7378 303.238 116.081 274.921 135.44C246.603 154.8 290.532 170.989 307.594 149.519C324.657 128.048 330.931 75.9134 329.74 62.9295C328.551 49.947 329.013 44.2747 319.211 38.6432C309.41 33.0102 276.372 21.0443 276.372 21.0443Z" fill="#2B1535"/>
<path fill-rule="evenodd" clip-rule="evenodd" d="M233.892 112.572C233.892 112.572 231.443 109.304 230.943 108.805C230.444 108.306 227.177 108.215 225.225 108.079C223.273 107.942 222.911 109.713 222.865 110.438C222.82 111.164 222.729 112.073 222.729 112.073C222.729 112.073 211.495 113.002 210.679 113.184C209.862 113.366 208.773 116.497 208.546 117.132C208.319 117.767 208.75 119.22 209.589 119.288C210.429 119.355 211.495 118.856 211.836 118.311C212.176 117.767 212.471 118.517 212.471 118.517C212.471 118.517 211.609 119.968 211.564 121.012C211.519 122.056 211.745 122.601 212.584 122.963C213.424 123.326 214.741 123.576 214.741 123.576C214.741 123.576 214.786 125.3 215.081 125.936C215.375 126.571 215.466 126.844 216.76 127.228C218.053 127.615 222.614 128.682 222.614 128.682L233.892 112.572Z" fill="#EA5153"/>
<path fill-rule="evenodd" clip-rule="evenodd" d="M214.697 123.846C214.547 123.822 214.445 123.682 214.47 123.533C214.493 123.383 214.632 123.283 214.781 123.306L216.973 123.655C217.121 123.679 217.222 123.818 217.2 123.968C217.176 124.117 217.036 124.218 216.887 124.194L214.697 123.846Z" fill="#CC3C49"/>
<path fill-rule="evenodd" clip-rule="evenodd" d="M333.115 222.684C333.115 222.684 330.21 245.254 311.332 245.254C292.452 245.254 297.898 245.254 290.092 245.254C282.287 245.254 264.316 225.226 250.52 207.8C236.725 190.373 230.175 178.031 230.175 178.031C226.838 183.709 191.174 212.176 182.826 219.598C181.193 221.05 174.099 229.31 172.828 229.31C172.828 229.31 163.389 229.944 156.31 225.043C156.31 225.043 158.563 215.466 159.032 214.88C180.266 188.372 203.918 158.54 215.646 146.676C227.373 134.815 239.401 141.361 266.629 160.604C293.857 179.844 333.115 222.684 333.115 222.684Z" fill="#2B1535"/>
<path fill-rule="evenodd" clip-rule="evenodd" d="M206.341 106.341L207.001 105.63C207.518 105.076 208.39 105.044 208.945 105.558L229.336 124.508C229.89 125.024 229.922 125.898 229.406 126.453L228.746 127.163C228.229 127.717 227.356 127.749 226.802 127.236L206.413 108.285C205.857 107.768 205.826 106.895 206.341 106.341Z" fill="#2B1535"/>
<path fill-rule="evenodd" clip-rule="evenodd" d="M249.86 123.391C249.86 123.391 247.374 122.252 246.512 121.708C245.65 121.163 239.024 112.768 238.162 112.405C237.299 112.042 231.309 111.406 230.447 111.406C229.586 111.406 228.314 112.224 227.906 113.131C227.497 114.039 226.817 116.625 226.817 116.625C226.817 116.625 218.155 116.844 215.688 116.905L213.144 114.542C213.144 114.542 212.207 114.865 211.843 115.387C211.481 115.909 211.458 117.474 211.503 118.268C211.549 119.062 213.021 121.014 213.43 121.444C213.839 121.876 214.859 122.126 215.608 122.239C215.608 122.239 215.583 124.122 217.126 124.757C218.668 125.393 220.551 126.233 220.551 126.233C220.551 126.233 220.642 127.822 221.776 128.547C222.911 129.273 225.951 131.588 225.951 131.588C225.951 131.588 227.04 132.019 227.767 131.974C227.767 131.974 228.628 133.81 230.035 134.4C231.442 134.99 236.524 137.216 237.251 137.396C237.977 137.577 240.804 137.063 243.566 138.66C246.327 140.255 246.689 140.345 246.689 140.345L251.863 126.095L249.86 123.391Z" fill="#F89B6F"/>
<path fill-rule="evenodd" clip-rule="evenodd" d="M159.173 243.222C159.173 243.222 117.162 244.224 115.534 241.221C115.534 241.221 115.534 238.816 115.534 237.214C115.534 235.613 117.452 233.31 122.674 231.809C127.897 230.306 139.038 227.4 142.461 226.349C145.884 225.298 155.692 214.585 157.084 213.283C158.477 211.983 164.976 216.187 166.368 216.888C167.761 217.59 166.832 219.291 166.136 221.294C165.44 223.296 159.173 243.222 159.173 243.222Z" fill="#D11E3F"/>
<path fill-rule="evenodd" clip-rule="evenodd" d="M115.534 245.254H182.735C183.531 245.254 184.183 244.884 184.183 244.43V242.046C184.183 241.591 183.531 241.22 182.735 241.22H115.534C114.738 241.22 114.086 241.591 114.086 242.046V244.43C114.086 244.884 114.738 245.254 115.534 245.254Z" fill="#F2CBD2"/>
<path fill-rule="evenodd" clip-rule="evenodd" d="M115.534 245.256H138.371C139.167 245.256 139.819 244.884 139.819 244.43V242.046C139.819 241.591 139.167 241.22 138.371 241.22H115.534C114.737 241.22 114.086 241.591 114.086 242.046V244.43C114.086 244.884 114.737 245.256 115.534 245.256Z" fill="#F6809D"/>
<path fill-rule="evenodd" clip-rule="evenodd" d="M145.246 227.652C145.478 228.352 147.567 231.858 146.117 232.709C144.666 233.559 140.024 236.613 137.413 236.613C134.801 236.613 129.288 236.613 122.384 236.613C115.479 236.613 117.074 234.535 117.074 234.535C115.993 235.478 115.534 236.429 115.534 237.214C115.534 238.816 115.534 241.221 115.534 241.221H182.733C182.733 241.221 185.577 238.366 185.577 231.657C185.577 224.948 185.954 221.093 184.822 220.017C183.69 218.942 182.907 219.491 182.907 219.491C177.685 223.396 171.359 220.591 168.051 219.041C167.699 218.875 167.365 218.708 167.046 218.545C164.363 217.16 162.719 215.925 160.334 217.088C157.664 218.389 148.264 224.147 146.755 225.049C145.246 225.951 145.015 226.95 145.246 227.652Z" fill="#D11E3F"/>
<path fill-rule="evenodd" clip-rule="evenodd" d="M115.534 238.205V241.221H182.735C182.735 241.221 185.577 238.366 185.577 231.657C185.577 224.948 185.954 221.093 184.822 220.017C184.975 222.167 183.653 224.574 181.33 224.574C179.008 224.574 172.852 224.574 167.94 224.574C163.027 224.574 162.035 226.843 162.035 226.843C162.035 226.843 159.553 231.081 157.767 234.078C155.98 237.074 153.004 239.122 150.819 239.122C148.635 239.122 122.079 239.122 118.506 239.122C116.981 239.122 116.073 238.694 115.534 238.205Z" fill="#EE244D"/>
<path fill-rule="evenodd" clip-rule="evenodd" d="M151.205 219.253C151.586 218.879 151.96 218.504 152.325 218.14L155.98 220.495C156.253 220.671 156.352 220.997 156.198 221.219C156.045 221.443 155.698 221.482 155.424 221.304L152.392 219.351L153.634 222.435C153.746 222.714 153.598 222.988 153.306 223.047C153.012 223.105 152.683 222.925 152.571 222.646L151.205 219.253ZM148.288 222.04L151.243 223.944C151.517 224.12 151.863 224.082 152.017 223.859C152.17 223.636 152.072 223.311 151.798 223.135L149.03 221.351C148.782 221.583 148.534 221.813 148.288 222.04ZM147.405 222.838C147.682 222.591 147.963 222.338 148.246 222.077L149.452 225.075C149.564 225.354 149.418 225.627 149.124 225.686C148.83 225.745 148.502 225.565 148.39 225.286L147.405 222.838ZM159.606 218.665C159.88 218.842 160.226 218.803 160.38 218.58C160.533 218.357 160.435 218.031 160.161 217.855L155.939 215.133L155.742 214.644L154.829 215.586L155.024 215.712L156.752 220.007C156.865 220.286 157.193 220.466 157.487 220.407C157.78 220.348 157.927 220.074 157.815 219.796L156.574 216.711L159.606 218.665Z" fill="#F03562"/>
<path fill-rule="evenodd" clip-rule="evenodd" d="M256.052 125.673L251.692 123.185C251.692 123.185 250.783 122.958 250.148 123.276C250.148 123.276 249.06 134.439 243.84 138.66C243.84 138.66 243.704 139.386 244.09 139.749C244.476 140.111 249.152 143.371 249.152 143.371C249.152 143.371 251.101 143.72 252.917 142.54C254.732 141.36 258.816 133.509 258.726 132.511C258.635 131.513 256.052 125.673 256.052 125.673Z" fill="#E19824"/>
<path fill-rule="evenodd" clip-rule="evenodd" d="M345.069 222.684C345.069 222.684 342.164 245.254 323.286 245.254C304.408 245.254 309.854 245.254 302.048 245.254C294.243 245.254 276.271 225.226 262.474 207.8C248.679 190.373 242.129 178.031 242.129 178.031C238.791 183.709 203.129 212.176 194.781 219.598C193.147 221.05 186.053 229.31 184.782 229.31C184.782 229.31 175.343 229.944 168.264 225.043C168.264 225.043 170.517 215.466 170.987 214.88C192.22 188.372 215.873 158.54 227.6 146.676C239.329 134.815 251.354 141.361 278.583 160.604C305.811 179.844 345.069 222.684 345.069 222.684Z" fill="#451E56"/>
<path fill-rule="evenodd" clip-rule="evenodd" d="M303.865 108.691L301.999 107.108C301.999 107.108 291.704 129.385 289.525 142.091C287.347 154.798 296.968 153.346 296.968 153.346C296.968 153.346 303.865 149.353 304.047 144.269C304.228 139.187 303.865 108.691 303.865 108.691Z" fill="#E19824"/>
<path fill-rule="evenodd" clip-rule="evenodd" d="M314.403 32.8936C314.403 32.8936 324.479 48.8303 339.663 55.2872C339.663 55.2872 341.401 66.329 333.861 71.0285C326.323 75.7266 314.717 71.9197 314.717 71.9197L307.062 60.6624L314.403 32.8936Z" fill="#F89B6F"/>
<path fill-rule="evenodd" clip-rule="evenodd" d="M308.871 63.3211L307.662 61.5437C308.697 57.3095 310.484 49.9205 310.484 49.4059C310.484 48.6793 315.293 41.7814 315.293 41.7814L319.196 41.8723L319.106 57.2107L308.871 63.3211Z" fill="#EA5153"/>
<path fill-rule="evenodd" clip-rule="evenodd" d="M351.709 82.7411C351.709 82.7411 380.753 134.373 354.614 211.985C354.614 211.985 351.891 218.883 352.254 224.691C352.617 230.5 332.648 233.585 323.753 218.155C314.859 202.725 320.849 203.27 311.047 193.65C301.244 184.029 285.816 172.231 285.816 172.231C285.816 172.231 289.987 164.606 298.337 163.154C298.337 163.154 298.337 158.253 301.151 157.254C301.151 157.254 296.521 140.555 296.885 129.119C297.247 117.683 303.78 98.078 314.853 83.5572C314.853 83.5572 316.214 79.2893 314.489 76.0215C312.766 72.7544 312.493 71.4838 313.311 69.8503C313.311 69.8503 316.578 69.8503 319.301 67.8531C322.023 65.8566 328.83 65.6748 328.83 65.6748L351.709 82.7411Z" fill="#FBC748"/>
<path fill-rule="evenodd" clip-rule="evenodd" d="M342.351 229.429C336.125 229.244 328.415 226.247 323.753 218.155C314.859 202.725 320.849 203.27 311.047 193.65C301.244 184.029 285.816 172.23 285.816 172.23C285.816 172.23 289.987 164.606 298.337 163.154C298.337 163.154 298.337 158.253 301.151 157.254L301.082 157.005L323.017 164.72L346.252 130.593L350.078 141.066C350.078 141.066 334.272 189.406 331.005 199.571C328.036 208.804 327.467 221.931 342.351 229.429Z" fill="#E19824"/>
<path fill-rule="evenodd" clip-rule="evenodd" d="M316.908 110.153C311.774 128.827 313.096 148.818 313.096 148.818C313.096 148.818 311.235 147.773 311.1 150.541C302.793 141.268 284.242 142.906 266.943 125.492C263.568 122.092 256.052 125.673 256.052 125.673C256.052 125.673 257.865 135.748 249.152 143.371C249.152 143.371 246.247 153.899 263.129 163.34C280.01 172.778 297.802 175.501 307.602 182.399C317.404 189.296 325.391 188.026 331.199 181.854C337.008 175.682 356.794 132.301 354.434 115.961C350.518 88.8465 322.044 91.4809 316.908 110.153Z" fill="#FBC748"/>
<path fill-rule="evenodd" clip-rule="evenodd" d="M313.129 135.405C320.724 136.462 334.565 139.084 348.665 145.245C348.062 146.966 347.43 148.687 346.78 150.396C333.464 144.524 320.361 141.969 312.957 140.908C312.978 139.262 313.028 137.411 313.129 135.405ZM314.027 125.009C313.792 126.879 313.605 128.704 313.458 130.455C320.427 131.331 335.269 133.859 350.219 140.619C350.792 138.831 351.325 137.062 351.808 135.33C336.411 128.494 321.223 125.911 314.027 125.009Z" fill="white"/>
<path fill-rule="evenodd" clip-rule="evenodd" d="M278.564 21.1852C278.564 21.1852 273.215 25.8733 276.911 35.7863C280.606 45.6992 283.285 49.6793 279.736 54.2156C279.736 54.2156 279.283 55.0288 279.919 55.5571C280.555 56.0868 282.864 56.9873 284.183 57.691C285.505 58.3932 290.251 65.5158 293.15 67.7314C296.049 69.9469 302.425 68.1938 307.764 61.986C313.107 55.7782 317.314 40.518 315.46 34.4455C313.607 28.3759 289.215 18.8058 278.564 21.1852Z" fill="#F89B6F"/>
<path fill-rule="evenodd" clip-rule="evenodd" d="M300.939 35.4706C300.939 35.4706 290.722 39.2703 281.674 33.4362C272.627 27.6021 269.242 19.0055 277.108 11.3661C284.976 3.72806 303.574 -6.19135 319.436 5.08171C335.299 16.3555 327.679 33.4168 351.239 43.4372C363.673 48.7251 373.39 52.3336 379.695 59.0933C413.65 95.4895 347.797 148.893 324.759 100.313C309.608 68.3642 326.911 42.1351 300.939 35.4706Z" fill="#451E56"/>
<path fill-rule="evenodd" clip-rule="evenodd" d="M171.127 243.222C171.127 243.222 129.115 244.224 127.488 241.221C127.488 241.221 127.488 238.816 127.488 237.214C127.488 235.613 129.406 233.31 134.628 231.809C139.851 230.306 150.992 227.4 154.415 226.349C157.838 225.298 167.645 214.585 169.038 213.283C170.431 211.983 176.929 216.187 178.322 216.888C179.715 217.59 178.786 219.291 178.09 221.294C177.394 223.296 171.127 243.222 171.127 243.222Z" fill="#F03562"/>
<path fill-rule="evenodd" clip-rule="evenodd" d="M127.488 245.254H194.69C195.486 245.254 196.136 244.884 196.136 244.43V242.046C196.136 241.591 195.486 241.22 194.69 241.22H127.488C126.692 241.22 126.041 241.591 126.041 242.046V244.43C126.041 244.884 126.692 245.254 127.488 245.254Z" fill="#FBCDD8"/>
<path fill-rule="evenodd" clip-rule="evenodd" d="M127.487 245.256H150.326C151.122 245.256 151.773 244.884 151.773 244.43V242.046C151.773 241.591 151.122 241.22 150.326 241.22H127.487C126.691 241.22 126.04 241.591 126.04 242.046V244.43C126.04 244.884 126.691 245.256 127.487 245.256Z" fill="white"/>
<path fill-rule="evenodd" clip-rule="evenodd" d="M157.201 227.652C157.433 228.352 159.521 231.858 158.071 232.709C156.621 233.559 151.978 236.613 149.367 236.613C146.755 236.613 141.244 236.613 134.338 236.613C127.433 236.613 129.028 234.535 129.028 234.535C127.947 235.478 127.488 236.429 127.488 237.214C127.488 238.816 127.488 241.221 127.488 241.221H194.688C194.688 241.221 197.532 238.366 197.532 231.657C197.532 224.948 197.908 221.093 196.777 220.017C195.645 218.942 194.862 219.491 194.862 219.491C189.639 223.396 183.313 220.591 180.006 219.041C179.654 218.875 179.319 218.708 179 218.545C176.317 217.16 174.674 215.925 172.288 217.088C169.618 218.389 160.219 224.147 158.71 225.049C157.201 225.951 156.969 226.95 157.201 227.652Z" fill="#EE244D"/>
<path fill-rule="evenodd" clip-rule="evenodd" d="M127.488 238.205V241.221H194.688C194.688 241.221 197.532 238.366 197.532 231.657C197.532 224.948 197.908 221.093 196.777 220.017C196.928 222.167 195.607 224.574 193.285 224.574C190.963 224.574 184.807 224.574 179.894 224.574C174.981 224.574 173.989 226.843 173.989 226.843C173.989 226.843 171.507 231.081 169.721 234.078C167.935 237.074 164.958 239.122 162.773 239.122C160.591 239.122 134.032 239.122 130.46 239.122C128.935 239.122 128.027 238.694 127.488 238.205Z" fill="#E21E44"/>
<path fill-rule="evenodd" clip-rule="evenodd" d="M163.159 219.253C163.541 218.879 163.915 218.504 164.279 218.14L167.934 220.495C168.208 220.671 168.305 220.997 168.153 221.219C167.999 221.443 167.653 221.482 167.378 221.304L164.347 219.351L165.588 222.435C165.7 222.714 165.553 222.988 165.26 223.047C164.966 223.105 164.638 222.925 164.524 222.646L163.159 219.253ZM160.242 222.04L163.197 223.944C163.471 224.12 163.819 224.082 163.972 223.859C164.124 223.636 164.026 223.311 163.753 223.135L160.984 221.351C160.736 221.583 160.488 221.813 160.242 222.04ZM159.359 222.838C159.637 222.591 159.918 222.338 160.2 222.077L161.407 225.075C161.518 225.354 161.372 225.627 161.078 225.686C160.785 225.745 160.456 225.565 160.344 225.286L159.359 222.838ZM171.56 218.665C171.834 218.842 172.18 218.803 172.334 218.58C172.487 218.357 172.389 218.031 172.115 217.855L167.893 215.133L167.696 214.644L166.783 215.586L166.978 215.712L168.706 220.007C168.819 220.286 169.148 220.466 169.441 220.407C169.734 220.348 169.882 220.074 169.769 219.796L168.527 216.711L171.56 218.665Z" fill="white"/>
<path fill-rule="evenodd" clip-rule="evenodd" d="M222.457 112.036C222.477 111.887 222.614 111.783 222.764 111.802C222.915 111.821 223.019 111.958 223 112.108C223 112.111 222.804 113.49 222.77 113.93C222.756 114.131 222.784 114.402 222.95 114.617C223.071 114.77 223.27 114.903 223.585 114.969C223.68 114.988 223.816 114.992 223.985 114.976C224.497 114.931 225.24 114.708 225.921 114.209C226.596 113.712 227.205 112.937 227.443 111.786C227.547 111.28 227.581 110.701 227.523 110.043C227.508 109.892 227.619 109.76 227.768 109.747C227.92 109.733 228.052 109.842 228.065 109.992C228.132 110.71 228.093 111.344 227.978 111.898C227.708 113.203 227.016 114.084 226.244 114.649C225.477 115.215 224.623 115.468 224.034 115.521C223.81 115.542 223.616 115.535 223.474 115.506C223.013 115.41 222.71 115.202 222.517 114.954C222.247 114.606 222.2 114.19 222.225 113.887C222.257 113.468 222.457 112.042 222.457 112.036Z" fill="#CC3C49"/>
<path fill-rule="evenodd" clip-rule="evenodd" d="M227.615 112.698C227.468 112.736 227.32 112.645 227.282 112.499C227.246 112.352 227.335 112.202 227.483 112.166C227.484 112.166 228.443 111.934 228.753 110.71C228.791 110.563 228.94 110.476 229.087 110.512C229.233 110.55 229.323 110.7 229.285 110.845C228.893 112.39 227.619 112.698 227.615 112.698Z" fill="#CC3C49"/>
<path fill-rule="evenodd" clip-rule="evenodd" d="M226.819 116.897C226.668 116.9 226.545 116.779 226.543 116.627C226.541 116.476 226.664 116.353 226.813 116.351L232.885 116.302C233.036 116.3 233.159 116.423 233.159 116.572C233.161 116.723 233.04 116.847 232.889 116.848L226.819 116.897Z" fill="#EA5153"/>
<path fill-rule="evenodd" clip-rule="evenodd" d="M230.579 116.34C230.72 116.393 230.79 116.551 230.737 116.691C230.682 116.833 230.525 116.903 230.383 116.85C230.38 116.848 229.01 116.353 228.585 114.88C228.544 114.736 228.629 114.583 228.772 114.544C228.918 114.502 229.069 114.585 229.111 114.731C229.457 115.935 230.577 116.338 230.579 116.34Z" fill="#EA5153"/>
<path fill-rule="evenodd" clip-rule="evenodd" d="M215.589 122.512C215.438 122.502 215.325 122.369 215.336 122.218C215.347 122.067 215.478 121.953 215.629 121.965L222.173 122.472C222.322 122.483 222.437 122.616 222.424 122.767C222.415 122.916 222.283 123.029 222.132 123.019L215.589 122.512Z" fill="#EA5153"/>
<path fill-rule="evenodd" clip-rule="evenodd" d="M220.447 126.484C220.307 126.427 220.24 126.267 220.299 126.126C220.356 125.986 220.517 125.921 220.656 125.979L224.344 127.507C224.484 127.566 224.551 127.727 224.493 127.866C224.435 128.006 224.274 128.07 224.135 128.014L220.447 126.484Z" fill="#EA5153"/>
<path fill-rule="evenodd" clip-rule="evenodd" d="M227.778 132.245C227.627 132.251 227.5 132.135 227.494 131.982C227.488 131.834 227.606 131.705 227.755 131.7L229.209 131.639C229.358 131.633 229.487 131.75 229.493 131.902C229.498 132.053 229.381 132.179 229.23 132.185L227.778 132.245Z" fill="#EA5153"/>
<path fill-rule="evenodd" clip-rule="evenodd" d="M209.242 108.53L209.397 108.364C209.518 108.234 209.724 108.226 209.854 108.347L214.638 112.794C214.769 112.915 214.776 113.12 214.655 113.25L214.5 113.417C214.379 113.547 214.175 113.555 214.045 113.434L209.259 108.986C209.128 108.865 209.123 108.661 209.242 108.53Z" fill="#451E56"/>
<path fill-rule="evenodd" clip-rule="evenodd" d="M319.591 209.082C319.771 209.142 319.865 209.338 319.805 209.516C319.742 209.695 319.548 209.789 319.371 209.729C318.446 209.408 317.483 208.98 316.482 208.423C315.543 207.901 314.572 207.263 313.569 206.501C301.467 197.291 252.737 158.416 252.041 157.861C251.572 157.599 245.5 154.329 239.909 158.227C233.949 162.381 186.012 215.563 185.874 215.715C185.748 215.855 185.531 215.867 185.392 215.74C185.252 215.613 185.241 215.397 185.367 215.258C185.506 215.105 233.5 161.859 239.518 157.663C245.492 153.501 251.961 157.031 252.384 157.272C252.408 157.283 252.43 157.295 252.453 157.312C252.595 157.427 301.831 196.704 313.983 205.957C314.96 206.701 315.906 207.32 316.815 207.825C317.782 208.363 318.708 208.776 319.591 209.082Z" fill="#2B1535"/>
<path fill-rule="evenodd" clip-rule="evenodd" d="M175.976 208.699C175.818 208.594 175.774 208.383 175.878 208.224C175.981 208.065 176.193 208.021 176.352 208.123C176.385 208.147 188.088 215.803 191.242 221.082C191.339 221.244 191.287 221.454 191.124 221.55C190.963 221.649 190.753 221.596 190.655 221.433C187.584 216.292 176.01 208.718 175.976 208.699Z" fill="#2B1535"/>
<path fill-rule="evenodd" clip-rule="evenodd" d="M242.286 178.776C242.213 178.949 242.01 179.031 241.838 178.957C241.664 178.884 241.583 178.682 241.656 178.509C241.661 178.498 243.381 174.641 243.381 170.492C243.381 170.301 243.534 170.149 243.725 170.149C243.914 170.149 244.067 170.301 244.067 170.492C244.067 174.782 242.29 178.765 242.286 178.776Z" fill="#2B1535"/>
<path fill-rule="evenodd" clip-rule="evenodd" d="M313.433 148.683C313.336 147.057 312.336 128.07 317.239 110.244C317.288 110.06 317.18 109.873 316.999 109.824C316.817 109.775 316.629 109.881 316.579 110.064C311.909 127.046 312.562 145.062 312.725 148.318C312.109 148.168 311.151 148.215 310.846 149.772C307.233 146.092 301.965 144.185 295.801 141.954C287.275 138.865 277.019 135.151 267.187 125.251C263.637 121.68 255.929 125.353 255.907 125.363C255.735 125.444 255.662 125.647 255.741 125.819C255.823 125.989 256.024 126.063 256.197 125.983C256.218 125.974 263.496 122.506 266.7 125.734C276.641 135.741 286.976 139.484 295.568 142.597C301.927 144.9 307.322 146.853 310.823 150.745C310.909 150.877 311.554 151.882 311.858 153.218C311.899 153.403 312.08 153.519 312.267 153.478C312.45 153.437 312.567 153.254 312.525 153.07C312.23 151.77 311.64 150.758 311.447 150.449C311.58 148.588 312.656 148.988 312.882 149.092C313.08 149.322 313.815 150.208 313.972 150.783C314.021 150.965 314.208 151.072 314.39 151.024C314.572 150.974 314.679 150.786 314.63 150.604C314.438 149.902 313.673 148.964 313.433 148.683ZM248.821 143.289C248.866 143.104 249.051 142.994 249.235 143.04C249.418 143.086 249.53 143.271 249.484 143.455C249.477 143.484 246.648 153.732 263.295 163.041C271.749 167.767 280.443 170.81 288.241 173.536C296.005 176.254 302.883 178.66 307.8 182.119C312.436 185.383 316.649 186.793 320.402 186.706C324.457 186.613 327.991 184.766 330.951 181.62C334.03 178.349 341.087 164.489 346.646 149.789C350.734 138.979 354.003 127.731 354.27 119.938C354.275 119.751 354.434 119.601 354.621 119.607C354.81 119.613 354.958 119.772 354.952 119.961C354.684 127.838 351.395 139.163 347.287 150.029C341.699 164.802 334.574 178.768 331.449 182.088C328.363 185.367 324.669 187.292 320.416 187.388C316.52 187.479 312.168 186.031 307.405 182.68C302.564 179.273 295.729 176.882 288.016 174.183C280.192 171.445 271.469 168.394 262.964 163.638C245.849 154.069 248.811 143.321 248.821 143.289Z" fill="#E19824"/>
<path fill-rule="evenodd" clip-rule="evenodd" d="M292.96 46.2196C290.771 46.9455 289.583 49.3099 290.31 51.4982C291.034 53.688 293.397 54.8741 295.587 54.1497C297.777 53.4231 298.964 51.0594 298.238 48.8704C297.512 46.6813 295.149 45.4945 292.96 46.2196Z" fill="#EA5153"/>
<path fill-rule="evenodd" clip-rule="evenodd" d="M286.978 38.6833C285.488 38.5236 283.854 38.9109 282.862 40.1078C282.633 40.3848 282.216 40.4242 281.941 40.1937C281.663 39.9639 281.625 39.5494 281.853 39.271C283.088 37.7813 285.253 37.1242 287.136 37.3847C287.496 37.4284 287.75 37.757 287.706 38.1149C287.661 38.4735 287.332 38.7284 286.978 38.6833Z" fill="#2B1535"/>
<path fill-rule="evenodd" clip-rule="evenodd" d="M285.85 42.2696C286.202 42.1444 286.57 42.1573 286.895 42.2768C286.993 42.2117 287.15 42.0735 287.182 41.8387C287.201 41.7048 287.326 41.6104 287.46 41.629C287.595 41.6483 287.689 41.7736 287.67 41.9074C287.633 42.1816 287.496 42.3835 287.356 42.523L287.374 42.5331C287.552 42.4185 287.746 42.2353 287.848 41.9482C287.895 41.8201 288.035 41.7528 288.162 41.8C288.291 41.8444 288.356 41.9862 288.311 42.1143C288.196 42.4357 287.999 42.6669 287.795 42.8301L287.799 42.833C288.013 42.7421 288.234 42.5968 288.417 42.3634C288.501 42.256 288.655 42.2374 288.764 42.3212C288.869 42.4049 288.888 42.5603 288.802 42.6676C288.616 42.9082 288.399 43.0757 288.179 43.1938L287.873 43.3541L288.493 45.1151C288.776 45.9183 288.351 46.8059 287.55 47.088C286.747 47.3707 285.859 46.9462 285.578 46.1438L284.906 44.2418C284.623 43.4393 285.048 42.5517 285.85 42.2696Z" fill="#2B1535"/>
<path fill-rule="evenodd" clip-rule="evenodd" d="M273.782 22.9727C273.754 22.7852 273.88 22.6105 274.068 22.5812C274.253 22.5518 274.428 22.6785 274.457 22.8646C274.468 22.924 277.561 43.7837 300.319 35.7541C300.499 35.6918 300.694 35.7856 300.757 35.9631C300.821 36.1421 300.727 36.3382 300.549 36.4005C277.008 44.7057 273.793 23.0336 273.782 22.9727Z" fill="#451E56"/>
<path fill-rule="evenodd" clip-rule="evenodd" d="M300.04 37.4098C300.614 25.8647 315.967 35.3754 307.277 44.5768C307.277 44.5768 301.065 44.1086 300.04 37.4098Z" fill="#F89B6F"/>
<path fill-rule="evenodd" clip-rule="evenodd" d="M300.382 37.4255C300.373 37.6138 300.212 37.7598 300.023 37.7505C299.836 37.7427 299.689 37.5816 299.698 37.3933C299.845 34.4176 300.955 32.7575 302.407 32.0911C303.67 31.5127 305.177 31.6952 306.531 32.4268C307.861 33.1434 309.05 34.3904 309.715 35.9552C310.759 38.4077 310.523 41.6368 307.524 44.8101C307.395 44.9476 307.178 44.9547 307.042 44.8245C306.904 44.6956 306.896 44.4787 307.026 44.3413C309.8 41.4042 310.033 38.4521 309.085 36.2236C308.485 34.8063 307.409 33.6774 306.208 33.0303C305.034 32.3975 303.747 32.2292 302.691 32.7124C301.458 33.278 300.515 34.7483 300.382 37.4255Z" fill="#EA5153"/>
<path fill-rule="evenodd" clip-rule="evenodd" d="M327.521 15.8565C327.448 15.6818 327.531 15.4814 327.704 15.4091C327.881 15.3368 328.082 15.4191 328.153 15.5938C328.173 15.6396 334.737 31.3759 344.808 37.671C348.071 39.7105 351.953 41.533 355.823 43.3534C364.068 47.2247 372.271 51.078 374.535 56.9902C374.602 57.167 374.513 57.3653 374.337 57.4325C374.16 57.4991 373.961 57.4103 373.895 57.2335C371.727 51.5784 363.652 47.7837 355.534 43.9712C351.638 42.1407 347.731 40.3046 344.446 38.2523C334.189 31.842 327.54 15.9023 327.521 15.8565Z" fill="#451E56"/>
<path fill-rule="evenodd" clip-rule="evenodd" d="M274.727 14.1901C275.362 13.2387 276.151 12.2959 277.108 11.3661C278.677 9.84348 280.676 8.22925 282.992 6.71024C296.669 22.1101 316.778 20.2017 329.12 17.0055C329.501 17.8065 329.863 18.614 330.212 19.4243C295.661 32.3309 280.582 21.5697 274.727 14.1901Z" fill="#562168"/>
<path fill-rule="evenodd" clip-rule="evenodd" d="M205.313 79.5578H225.843C227.447 79.5578 228.761 80.87 228.761 82.4734V95.0722C228.761 96.6772 227.447 97.9893 225.843 97.9893H219.019L216.332 102.337C216.217 102.522 216.03 102.625 215.811 102.625C215.593 102.625 215.406 102.522 215.29 102.337L212.602 97.9893H205.313C203.709 97.9893 202.395 96.6772 202.395 95.0722V82.4734C202.395 80.87 203.709 79.5578 205.313 79.5578Z" fill="#F03562"/>
<path fill-rule="evenodd" clip-rule="evenodd" d="M225.669 49.1761H252.137C254.203 49.1761 255.896 50.8683 255.896 52.9357V69.1774C255.896 71.244 254.203 72.937 252.137 72.937H243.339L239.875 78.5399C239.728 78.7797 239.486 78.915 239.204 78.915C238.922 78.915 238.68 78.7797 238.533 78.5399L235.067 72.937H225.669C223.601 72.937 221.91 71.244 221.91 69.1774V52.9357C221.91 50.8683 223.601 49.1761 225.669 49.1761Z" fill="#F03562"/>
<path fill-rule="evenodd" clip-rule="evenodd" d="M0.0191908 146.182C-15.2162 139.492 -17.6307 156.796 -10.8627 170.449C-6.283 179.685 10.2206 203.336 21.3347 223.455H34.0194C29.6821 193.018 15.7669 153.098 0.0191908 146.182Z" fill="#88BCD0"/>
<path fill-rule="evenodd" clip-rule="evenodd" d="M29.4897 223.455C18.6733 186.58 -6.23785 151.829 -6.33714 151.689C-6.55218 151.387 -6.97016 151.317 -7.27102 151.533C-7.57168 151.747 -7.64075 152.17 -7.42622 152.472C-7.32757 152.611 17.3204 186.999 28.1124 223.455H29.4897Z" fill="#6293AC"/>
<path fill-rule="evenodd" clip-rule="evenodd" d="M32.2148 91.5016C47.5767 76.194 58.0688 95.6012 55.9299 115.099C53.9005 133.584 36.1655 197.026 38.2866 223.704L32.2334 223.712C18.4671 189.515 12.5478 111.1 32.2148 91.5016Z" fill="#6293AC"/>
<path fill-rule="evenodd" clip-rule="evenodd" d="M34.4591 223.708C21.6864 169.8 42.1952 95.234 42.264 94.9813C42.3892 94.5174 42.861 94.234 43.317 94.3456C43.773 94.4573 44.04 94.9226 43.9154 95.3858C43.8467 95.6392 23.3128 170.29 36.2101 223.707L34.4591 223.708Z" fill="#88BCD0"/>
<path fill-rule="evenodd" clip-rule="evenodd" d="M70.0284 125.353C86.1326 117.536 89.2229 135.93 82.3795 150.815C76.7086 163.154 52.5261 199.387 42.9159 222.875L34.9321 222.596C35.8212 189.703 51.0185 134.579 70.0284 125.353Z" fill="#88BCD0"/>
<path fill-rule="evenodd" clip-rule="evenodd" d="M37.8485 222.699C45.1637 178.424 76.8754 131.134 76.99 130.962C77.2104 130.629 77.6564 130.537 77.9843 130.753C78.3128 130.973 78.3988 131.419 78.1776 131.75C78.0637 131.922 46.556 178.906 39.2673 222.747L37.8485 222.699Z" fill="#6293AC"/>
<path fill-rule="evenodd" clip-rule="evenodd" d="M41.8157 225.429H22.7178L17.7319 229.928L21.8058 245.616H32.2664H42.7277L46.8015 229.928L41.8157 225.429Z" fill="#451E56"/>
<path fill-rule="evenodd" clip-rule="evenodd" d="M40.2974 225.429H22.7178L17.7319 229.928L19.2581 235.809L46.4572 231.255L46.8015 229.928L42.014 225.608L40.2974 225.429Z" fill="#2B1535"/>
<path fill-rule="evenodd" clip-rule="evenodd" d="M46.8016 219.589H17.732C16.863 219.589 16.1508 220.301 16.1508 221.17V228.348C16.1508 229.216 16.863 229.928 17.732 229.928H46.8016C47.6714 229.928 48.3822 229.216 48.3822 228.348V221.17C48.3822 220.301 47.6714 219.589 46.8016 219.589Z" fill="#451E56"/>
</svg>
