<svg width="26" height="26" viewBox="0 0 26 26" fill="none" xmlns="http://www.w3.org/2000/svg">
<path d="M13 0C8.22128 0 4.33331 3.88797 4.33331 8.66668C4.33331 10.1013 4.69198 11.5236 5.37382 12.7852L12.5261 25.7207C12.6213 25.8932 12.8027 26 13 26C13.1973 26 13.3787 25.8932 13.4739 25.7207L20.6288 12.781C21.308 11.5236 21.6667 10.1012 21.6667 8.66663C21.6667 3.88796 17.7787 0 13 0ZM13 13C10.6106 13 8.66668 11.056 8.66668 8.66668C8.66668 6.27732 10.6106 4.33337 13 4.33337C15.3894 4.33337 17.3333 6.27732 17.3333 8.66668C17.3333 11.056 15.3894 13 13 13Z" fill="#6347E7"/>
</svg>
