<svg width="80" height="80" viewBox="0 0 80 80" fill="none" xmlns="http://www.w3.org/2000/svg">
<defs>
<clipPath id="clip0">
<rect width="80" height="80" fill="white"/>
</clipPath>
</defs>
<g clip-path="url(#clip0)">
<path fill-rule="evenodd" clip-rule="evenodd" d="M36.6255 10.0726H44.3961V24.7374H36.6255V10.0726Z" fill="#EFF6FF"/>
<path fill-rule="evenodd" clip-rule="evenodd" d="M29.3427 28.8304L40.5381 32.0197L51.4372 28.8304L51.5558 24.5732C51.5877 23.4644 50.6483 22.5565 49.5356 22.5565H44.3962H36.6256H31.4862C30.3736 22.5565 29.498 23.4644 29.4661 24.5732L29.3427 28.8304Z" fill="#7E707D"/>
<path fill-rule="evenodd" clip-rule="evenodd" d="M51.5556 24.5733C51.5556 23.4646 50.6481 22.5566 49.5355 22.5566H44.3961C45.5088 22.5566 46.4163 23.4646 46.4163 24.5733V28.8213H51.5556V24.5733Z" fill="#6A5C69"/>
<path fill-rule="evenodd" clip-rule="evenodd" d="M44.396 12.2537H58.6834C60.1564 12.2537 60.3114 11.8157 60.3114 10.5062V9.00506C60.3114 7.21177 58.8476 5.75162 57.0599 5.75162H34.1857C32.3981 5.75162 30.9343 7.21177 30.9343 9.0049C30.9343 10.7935 32.3982 12.2537 34.1857 12.2537H36.6254H44.396Z" fill="#A7E9A6"/>
<path fill-rule="evenodd" clip-rule="evenodd" d="M60.3114 9.0049C60.3114 7.21177 58.8477 5.75162 57.06 5.75162H50.9766C52.7642 5.75162 54.228 7.21177 54.228 9.0049V10.506C54.228 11.8155 54.073 12.2535 52.6 12.2535H58.6834C60.1564 12.2535 60.3114 11.8155 60.3114 10.506V9.0049Z" fill="#7FDBAE"/>
<path fill-rule="evenodd" clip-rule="evenodd" d="M63.2438 83.5842V39.9272C63.2438 33.8175 58.2503 28.8213 52.1441 28.8213H51.5558H46.4164H29.4658H28.8775C22.7713 28.8213 17.7778 33.8175 17.7778 39.9272V83.5842C17.7778 84.7752 18.7492 85.7516 19.9439 85.7516H61.0777C62.2678 85.7516 63.2438 84.7752 63.2438 83.5842Z" fill="#A7E9A6"/>
<path fill-rule="evenodd" clip-rule="evenodd" d="M63.2437 39.9272C63.2437 33.8175 58.2503 28.8213 52.144 28.8213H51.5557H47.0046C53.1109 28.8213 58.1044 33.8175 58.1044 39.9272V83.5842C58.1044 84.7752 57.1329 85.7516 55.9383 85.7516H61.0776C62.2678 85.7516 63.2437 84.7752 63.2437 83.5842V39.9272Z" fill="#7FDBAE"/>
<path fill-rule="evenodd" clip-rule="evenodd" d="M27.0717 54.5282V71.1871C27.0717 72.9073 28.4807 74.3126 30.1954 74.3126H51.4371C53.1563 74.3126 54.5609 72.9073 54.5609 71.1871V54.5282C54.5609 52.8081 53.1563 51.4028 51.4371 51.4028H30.1954C28.4807 51.4028 27.0717 52.8081 27.0717 54.5282ZM34.8696 64.5117V60.5101C34.8696 60.1223 35.1888 59.8074 35.572 59.8074H37.8612V57.517C37.8612 57.1337 38.1759 56.8143 38.5635 56.8143H42.5629C42.946 56.8143 43.2653 57.1337 43.2653 57.517V59.8074H45.5499C45.9376 59.8074 46.2523 60.1223 46.2523 60.5101V64.5117C46.2523 64.8949 45.9376 65.2143 45.5499 65.2143H43.2651V67.5003C43.2651 67.8881 42.9459 68.2029 42.5627 68.2029H38.5635C38.1759 68.2029 37.8612 67.8881 37.8612 67.5003V65.2143H35.572C35.1888 65.2143 34.8696 64.8949 34.8696 64.5117Z" fill="#EFF6FF"/>
<path fill-rule="evenodd" clip-rule="evenodd" d="M37.8612 65.2143V67.5002C37.8612 67.888 38.1759 68.2029 38.5635 68.2029H42.5629C42.946 68.2029 43.2652 67.888 43.2652 67.5002V65.2143H45.5499C45.9376 65.2143 46.2523 64.8949 46.2523 64.5116V60.5101C46.2523 60.1222 45.9376 59.8074 45.5499 59.8074H43.2651V57.5169C43.2651 57.1336 42.9459 56.8143 42.5627 56.8143H38.5635C38.1759 56.8143 37.8612 57.1336 37.8612 57.5169V59.8074H35.572C35.1888 59.8074 34.8696 60.1222 34.8696 60.5101V64.5116C34.8696 64.8949 35.1888 65.2143 35.572 65.2143H37.8612Z" fill="#FE8D94"/>
<path fill-rule="evenodd" clip-rule="evenodd" d="M54.8572 40.5886C54.8572 43.5135 56.5673 45.3157 58.6833 46.0002C59.3262 46.21 60.0103 46.315 60.6944 46.315C63.6084 46.315 66.527 44.4079 66.527 40.5886C66.527 37.6502 62.7511 32.5171 61.1687 30.1352C60.7948 29.574 60.5942 29.574 60.2201 30.1352C59.1303 31.7733 57.0051 34.7118 55.783 37.3444C55.2265 38.54 54.8572 39.6716 54.8572 40.5886Z" fill="#EFF6FF"/>
<path fill-rule="evenodd" clip-rule="evenodd" d="M60.3806 46.315C63.2947 46.315 66.2133 44.4079 66.2133 40.5886C66.2133 37.6502 62.4374 32.5171 60.855 30.1352C60.4811 29.574 60.2805 29.574 59.9064 30.1352C59.5097 30.7283 58.9806 31.4904 58.4106 32.3482C60.025 34.8166 61.7716 37.8327 61.7716 39.8311C61.7716 43.121 59.61 44.9918 57.1428 45.448C57.5305 45.6761 57.9408 45.8632 58.3695 46C59.0125 46.21 59.6966 46.315 60.3806 46.315Z" fill="#D9EEFF"/>
<path fill-rule="evenodd" clip-rule="evenodd" d="M49.8137 54.5282V71.1871C49.8137 72.9073 48.4092 74.3126 46.6899 74.3126H51.4371C53.1563 74.3126 54.5609 72.9073 54.5609 71.1871V54.5282C54.5609 52.8081 53.1563 51.4028 51.4371 51.4028H46.6899C48.4092 51.4028 49.8137 52.8081 49.8137 54.5282Z" fill="#D9EEFF"/>
<path fill-rule="evenodd" clip-rule="evenodd" d="M44.3961 15.1738V12.2537H36.6255V15.1738H40.2783C41.7422 15.1738 41.423 16.2415 41.423 17.7974V22.5565H44.3963V15.1738H44.3961Z" fill="#D9EEFF"/>
<path d="M46.7401 44.0135H34.8971C34.2304 44.0135 33.6899 43.473 33.6899 42.8063C33.6899 42.1396 34.2304 41.5991 34.8971 41.5991H46.7401C47.4068 41.5991 47.9473 42.1396 47.9473 42.8063C47.9473 43.473 47.4068 44.0135 46.7401 44.0135ZM46.7401 38.7161H34.8971C34.2304 38.7161 33.6899 38.1757 33.6899 37.5089C33.6899 36.8422 34.2304 36.3018 34.8971 36.3018H46.7401C47.4068 36.3018 47.9473 36.8422 47.9473 37.5089C47.9473 38.1757 47.4068 38.7161 46.7401 38.7161Z" fill="#EFF6FF"/>
</g>

</svg>
