<svg width="35" height="41" viewBox="0 0 35 41" fill="none" xmlns="http://www.w3.org/2000/svg">
<defs>
<radialGradient id="paint0_radial" cx="0" cy="0" r="1" gradientUnits="userSpaceOnUse" gradientTransform="translate(18 9) rotate(90) scale(32)">
<stop stop-color="#4F26F4"/>
<stop offset="1" stop-color="#AB9BE8"/>
</radialGradient>
<clipPath id="clip0">
<rect width="35" height="35" fill="white"/>
</clipPath>
</defs>
<circle cx="18" cy="25" r="16" fill="url(#paint0_radial)"/>
<g clip-path="url(#clip0)">
<path fill-rule="evenodd" clip-rule="evenodd" d="M16.0237 4.40675H19.4233V10.8226H16.0237V4.40675Z" fill="#EFF6FF"/>
<path fill-rule="evenodd" clip-rule="evenodd" d="M12.8374 12.6133L17.7354 14.0086L22.5038 12.6133L22.5556 10.7508C22.5696 10.2657 22.1586 9.86845 21.6718 9.86845H19.4233H16.0237H13.7752C13.2884 9.86845 12.9054 10.2657 12.8914 10.7508L12.8374 12.6133Z" fill="#7E707D"/>
<path fill-rule="evenodd" clip-rule="evenodd" d="M22.5556 10.7508C22.5556 10.2658 22.1586 9.86853 21.6718 9.86853H19.4233C19.9101 9.86853 20.3072 10.2658 20.3072 10.7508V12.6093H22.5556V10.7508Z" fill="#6A5C69"/>
<path fill-rule="evenodd" clip-rule="evenodd" d="M19.4233 5.36098H25.674C26.3184 5.36098 26.3863 5.16937 26.3863 4.59645V3.93972C26.3863 3.15516 25.7459 2.51634 24.9638 2.51634H14.9563C14.1742 2.51634 13.5338 3.15516 13.5338 3.93965C13.5338 4.72216 14.1743 5.36098 14.9563 5.36098H16.0237H19.4233Z" fill="#A7E9A6"/>
<path fill-rule="evenodd" clip-rule="evenodd" d="M26.3862 3.93965C26.3862 3.15516 25.7459 2.51634 24.9638 2.51634H22.3022C23.0843 2.51634 23.7247 3.15516 23.7247 3.93965V4.59638C23.7247 5.1693 23.6569 5.36091 23.0125 5.36091H25.674C26.3184 5.36091 26.3862 5.1693 26.3862 4.59638V3.93965Z" fill="#7FDBAE"/>
<path fill-rule="evenodd" clip-rule="evenodd" d="M27.6691 36.5681V17.4682C27.6691 14.7952 25.4845 12.6093 22.813 12.6093H22.5557H20.3072H12.8913H12.6339C9.96243 12.6093 7.7778 14.7952 7.7778 17.4682V36.5681C7.7778 37.0892 8.20279 37.5163 8.72547 37.5163H26.7215C27.2422 37.5163 27.6691 37.0892 27.6691 36.5681Z" fill="#A7E9A6"/>
<path fill-rule="evenodd" clip-rule="evenodd" d="M27.6692 17.4682C27.6692 14.7952 25.4845 12.6093 22.8131 12.6093H22.5557H20.5646C23.2361 12.6093 25.4207 14.7952 25.4207 17.4682V36.5681C25.4207 37.0892 24.9957 37.5163 24.473 37.5163H26.7215C27.2422 37.5163 27.6692 37.0892 27.6692 36.5681V17.4682Z" fill="#7FDBAE"/>
<path fill-rule="evenodd" clip-rule="evenodd" d="M11.8439 23.8561V31.1444C11.8439 31.8969 12.4603 32.5118 13.2105 32.5118H22.5038C23.2559 32.5118 23.8704 31.8969 23.8704 31.1444V23.8561C23.8704 23.1035 23.2559 22.4887 22.5038 22.4887H13.2105C12.4603 22.4887 11.8439 23.1035 11.8439 23.8561ZM15.2555 28.2239V26.4732C15.2555 26.3035 15.3951 26.1658 15.5628 26.1658H16.5643V25.1637C16.5643 24.996 16.702 24.8563 16.8716 24.8563H18.6213C18.7889 24.8563 18.9286 24.996 18.9286 25.1637V26.1658H19.9281C20.0977 26.1658 20.2354 26.3035 20.2354 26.4732V28.2239C20.2354 28.3915 20.0977 28.5313 19.9281 28.5313H18.9285V29.5314C18.9285 29.701 18.7888 29.8388 18.6212 29.8388H16.8716C16.702 29.8388 16.5643 29.701 16.5643 29.5314V28.5313H15.5628C15.3951 28.5313 15.2555 28.3915 15.2555 28.2239Z" fill="#EFF6FF"/>
<path fill-rule="evenodd" clip-rule="evenodd" d="M16.5643 28.5313V29.5314C16.5643 29.701 16.702 29.8388 16.8716 29.8388H18.6213C18.7889 29.8388 18.9286 29.701 18.9286 29.5314V28.5313H19.9281C20.0977 28.5313 20.2354 28.3915 20.2354 28.2239V26.4732C20.2354 26.3035 20.0977 26.1658 19.9281 26.1658H18.9285V25.1637C18.9285 24.996 18.7888 24.8563 18.6212 24.8563H16.8716C16.702 24.8563 16.5643 24.996 16.5643 25.1637V26.1658H15.5628C15.3952 26.1658 15.2555 26.3035 15.2555 26.4732V28.2239C15.2555 28.3915 15.3952 28.5313 15.5628 28.5313H16.5643Z" fill="#FE8D94"/>
<path fill-rule="evenodd" clip-rule="evenodd" d="M24 17.7575C24 19.0372 24.7482 19.8256 25.6739 20.1251C25.9552 20.2169 26.2545 20.2628 26.5538 20.2628C27.8287 20.2628 29.1056 19.4284 29.1056 17.7575C29.1056 16.472 27.4536 14.2262 26.7613 13.1842C26.5977 12.9386 26.51 12.9386 26.3463 13.1842C25.8695 13.9008 24.9398 15.1864 24.4051 16.3382C24.1616 16.8613 24 17.3563 24 17.7575Z" fill="#EFF6FF"/>
<path fill-rule="evenodd" clip-rule="evenodd" d="M26.4166 20.2628C27.6915 20.2628 28.9684 19.4284 28.9684 17.7575C28.9684 16.472 27.3164 14.2262 26.6241 13.1842C26.4605 12.9386 26.3728 12.9386 26.2091 13.1842C26.0355 13.4437 25.8041 13.777 25.5547 14.1523C26.261 15.2323 27.0251 16.5518 27.0251 17.4261C27.0251 18.8654 26.0794 19.6839 25 19.8835C25.1696 19.9833 25.3491 20.0651 25.5367 20.125C25.818 20.2169 26.1173 20.2628 26.4166 20.2628Z" fill="#D9EEFF"/>
<path fill-rule="evenodd" clip-rule="evenodd" d="M21.7935 23.8561V31.1444C21.7935 31.8969 21.179 32.5118 20.4269 32.5118H22.5038C23.2559 32.5118 23.8704 31.8969 23.8704 31.1444V23.8561C23.8704 23.1035 23.2559 22.4887 22.5038 22.4887H20.4269C21.179 22.4887 21.7935 23.1035 21.7935 23.8561Z" fill="#D9EEFF"/>
<path fill-rule="evenodd" clip-rule="evenodd" d="M19.4233 6.63856V5.36099H16.0237V6.63856H17.6218C18.2622 6.63856 18.1226 7.10566 18.1226 7.78638V9.86847H19.4234V6.63856H19.4233Z" fill="#D9EEFF"/>
<path d="M20.4489 19.2559H15.2676C14.9759 19.2559 14.7394 19.0195 14.7394 18.7278C14.7394 18.4361 14.9759 18.1996 15.2676 18.1996H20.4489C20.7405 18.1996 20.977 18.4361 20.977 18.7278C20.977 19.0195 20.7405 19.2559 20.4489 19.2559ZM20.4489 16.9383H15.2676C14.9759 16.9383 14.7394 16.7019 14.7394 16.4102C14.7394 16.1185 14.9759 15.882 15.2676 15.882H20.4489C20.7405 15.882 20.977 16.1185 20.977 16.4102C20.977 16.7019 20.7405 16.9383 20.4489 16.9383Z" fill="#EFF6FF"/>
</g>

</svg>
