<svg width="103" height="125" viewBox="0 0 103 125" fill="none" xmlns="http://www.w3.org/2000/svg">
<defs>
<clipPath id="clip0">
<rect width="80" height="80" fill="white" transform="translate(12 23)"/>
</clipPath>
</defs>
<rect width="103" height="125" rx="5" fill="#8368CF"/>
<g clip-path="url(#clip0)">
<path fill-rule="evenodd" clip-rule="evenodd" d="M48.6255 33.0726H56.3961V47.7374H48.6255V33.0726Z" fill="#EFF6FF"/>
<path fill-rule="evenodd" clip-rule="evenodd" d="M41.3427 51.8304L52.5381 55.0197L63.4372 51.8304L63.5558 47.5732C63.5877 46.4644 62.6483 45.5565 61.5356 45.5565H56.3962H48.6256H43.4862C42.3736 45.5565 41.498 46.4644 41.4661 47.5732L41.3427 51.8304Z" fill="#7E707D"/>
<path fill-rule="evenodd" clip-rule="evenodd" d="M63.5556 47.5733C63.5556 46.4646 62.6481 45.5566 61.5355 45.5566H56.3961C57.5088 45.5566 58.4163 46.4646 58.4163 47.5733V51.8213H63.5556V47.5733Z" fill="#6A5C69"/>
<path fill-rule="evenodd" clip-rule="evenodd" d="M56.396 35.2537H70.6834C72.1564 35.2537 72.3114 34.8157 72.3114 33.5062V32.0051C72.3114 30.2118 70.8476 28.7516 69.0599 28.7516H46.1857C44.3981 28.7516 42.9343 30.2118 42.9343 32.0049C42.9343 33.7935 44.3982 35.2537 46.1857 35.2537H48.6254H56.396Z" fill="#A7E9A6"/>
<path fill-rule="evenodd" clip-rule="evenodd" d="M72.3114 32.0049C72.3114 30.2118 70.8477 28.7516 69.06 28.7516H62.9766C64.7642 28.7516 66.228 30.2118 66.228 32.0049V33.506C66.228 34.8155 66.073 35.2535 64.6 35.2535H70.6834C72.1564 35.2535 72.3114 34.8155 72.3114 33.506V32.0049Z" fill="#7FDBAE"/>
<path fill-rule="evenodd" clip-rule="evenodd" d="M75.2438 106.584V62.9272C75.2438 56.8175 70.2503 51.8213 64.1441 51.8213H63.5558H58.4164H41.4658H40.8775C34.7713 51.8213 29.7778 56.8175 29.7778 62.9272V106.584C29.7778 107.775 30.7492 108.752 31.9439 108.752H73.0777C74.2678 108.752 75.2438 107.775 75.2438 106.584Z" fill="#A7E9A6"/>
<path fill-rule="evenodd" clip-rule="evenodd" d="M75.2437 62.9272C75.2437 56.8175 70.2503 51.8213 64.144 51.8213H63.5557H59.0046C65.1109 51.8213 70.1044 56.8175 70.1044 62.9272V106.584C70.1044 107.775 69.1329 108.752 67.9383 108.752H73.0776C74.2678 108.752 75.2437 107.775 75.2437 106.584V62.9272Z" fill="#7FDBAE"/>
<path fill-rule="evenodd" clip-rule="evenodd" d="M39.0717 77.5282V94.1871C39.0717 95.9073 40.4807 97.3126 42.1954 97.3126H63.4371C65.1563 97.3126 66.5609 95.9073 66.5609 94.1871V77.5282C66.5609 75.8081 65.1563 74.4028 63.4371 74.4028H42.1954C40.4807 74.4028 39.0717 75.8081 39.0717 77.5282ZM46.8696 87.5117V83.5101C46.8696 83.1223 47.1888 82.8075 47.572 82.8075H49.8612V80.517C49.8612 80.1337 50.1759 79.8143 50.5635 79.8143H54.5629C54.946 79.8143 55.2653 80.1337 55.2653 80.517V82.8075H57.5499C57.9376 82.8075 58.2523 83.1223 58.2523 83.5101V87.5117C58.2523 87.8949 57.9376 88.2143 57.5499 88.2143H55.2651V90.5003C55.2651 90.8881 54.9459 91.2029 54.5627 91.2029H50.5635C50.1759 91.2029 49.8612 90.8881 49.8612 90.5003V88.2143H47.572C47.1888 88.2143 46.8696 87.8949 46.8696 87.5117Z" fill="#EFF6FF"/>
<path fill-rule="evenodd" clip-rule="evenodd" d="M49.8612 88.2143V90.5002C49.8612 90.888 50.1759 91.2029 50.5635 91.2029H54.5629C54.946 91.2029 55.2652 90.888 55.2652 90.5002V88.2143H57.5499C57.9376 88.2143 58.2523 87.8949 58.2523 87.5116V83.5101C58.2523 83.1223 57.9376 82.8074 57.5499 82.8074H55.2651V80.5169C55.2651 80.1337 54.9459 79.8143 54.5627 79.8143H50.5635C50.1759 79.8143 49.8612 80.1337 49.8612 80.5169V82.8074H47.572C47.1888 82.8074 46.8696 83.1223 46.8696 83.5101V87.5116C46.8696 87.8949 47.1888 88.2143 47.572 88.2143H49.8612Z" fill="#FE8D94"/>
<path fill-rule="evenodd" clip-rule="evenodd" d="M66.8572 63.5886C66.8572 66.5135 68.5673 68.3157 70.6833 69.0002C71.3262 69.21 72.0103 69.315 72.6944 69.315C75.6084 69.315 78.527 67.4079 78.527 63.5886C78.527 60.6502 74.7511 55.5171 73.1687 53.1352C72.7948 52.574 72.5942 52.574 72.2201 53.1352C71.1303 54.7733 69.0051 57.7118 67.783 60.3444C67.2265 61.5401 66.8572 62.6716 66.8572 63.5886Z" fill="#EFF6FF"/>
<path fill-rule="evenodd" clip-rule="evenodd" d="M72.3806 69.315C75.2947 69.315 78.2133 67.4079 78.2133 63.5886C78.2133 60.6502 74.4374 55.5171 72.855 53.1352C72.4811 52.574 72.2805 52.574 71.9064 53.1352C71.5097 53.7283 70.9806 54.4904 70.4106 55.3482C72.025 57.8166 73.7716 60.8327 73.7716 62.8311C73.7716 66.121 71.61 67.9918 69.1428 68.448C69.5305 68.6761 69.9408 68.8632 70.3695 69C71.0125 69.21 71.6966 69.315 72.3806 69.315Z" fill="#D9EEFF"/>
<path fill-rule="evenodd" clip-rule="evenodd" d="M61.8137 77.5282V94.1871C61.8137 95.9073 60.4092 97.3126 58.6899 97.3126H63.4371C65.1563 97.3126 66.5609 95.9073 66.5609 94.1871V77.5282C66.5609 75.8081 65.1563 74.4028 63.4371 74.4028H58.6899C60.4092 74.4028 61.8137 75.8081 61.8137 77.5282Z" fill="#D9EEFF"/>
<path fill-rule="evenodd" clip-rule="evenodd" d="M56.3961 38.1738V35.2537H48.6255V38.1738H52.2783C53.7422 38.1738 53.423 39.2415 53.423 40.7974V45.5565H56.3963V38.1738H56.3961Z" fill="#D9EEFF"/>
<path d="M58.7401 67.0135H46.8971C46.2304 67.0135 45.6899 66.473 45.6899 65.8063C45.6899 65.1396 46.2304 64.5991 46.8971 64.5991H58.7401C59.4068 64.5991 59.9473 65.1396 59.9473 65.8063C59.9473 66.473 59.4068 67.0135 58.7401 67.0135ZM58.7401 61.7162H46.8971C46.2304 61.7162 45.6899 61.1757 45.6899 60.509C45.6899 59.8422 46.2304 59.3018 46.8971 59.3018H58.7401C59.4068 59.3018 59.9473 59.8422 59.9473 60.509C59.9473 61.1757 59.4068 61.7162 58.7401 61.7162Z" fill="#EFF6FF"/>
</g>

</svg>
