<svg width="37" height="37" viewBox="0 0 37 37" fill="none" xmlns="http://www.w3.org/2000/svg">
<circle cx="18.5" cy="18.5" r="18" fill="#CFC7F6" stroke="#ACB3BA"/>
<path d="M17.9453 30H20.0547C20.8301 30 21.4609 29.3692 21.4609 28.5938C21.4609 27.9397 21.0121 27.3885 20.4062 27.232V26.6486C20.4062 26.5152 20.5031 26.3997 20.6367 26.3737C21.7595 26.1555 22.8109 25.72 23.7617 25.0794C23.8755 25.0026 24.0266 25.0155 24.121 25.1098L24.5372 25.5259C24.2469 26.0311 24.2836 26.682 24.6652 27.1377C24.919 27.4406 25.2899 27.6243 25.6829 27.6416C26.0758 27.6585 26.4612 27.5093 26.7394 27.2311L28.231 25.7395C28.4966 25.4739 28.6429 25.1208 28.6429 24.7452C28.6429 24.3695 28.4966 24.0164 28.231 23.7508C27.9654 23.4852 27.6123 23.3389 27.2366 23.3389C26.9812 23.3389 26.7362 23.4065 26.522 23.5333L26.1097 23.121C26.0154 23.0267 26.0026 22.8756 26.0793 22.7617C26.72 21.8109 27.1555 20.7595 27.3737 19.6367C27.3996 19.5031 27.5152 19.4062 27.6485 19.4062H28.2314C28.2951 19.6555 28.4268 19.8828 28.6172 20.0666C28.8944 20.3341 29.2589 20.4731 29.6446 20.4601C30.4046 20.433 31 19.8058 31 19.0322V16.9453C31 16.5608 30.8477 16.2018 30.5713 15.9344C30.2948 15.6671 29.93 15.527 29.5459 15.5399C28.9241 15.5606 28.3985 16.0062 28.2379 16.5938H27.6486C27.5152 16.5938 27.3996 16.4969 27.3737 16.3633C27.1555 15.2405 26.72 14.1891 26.0794 13.2383C26.0027 13.1244 26.0155 12.9733 26.1098 12.879L26.5221 12.4667C26.7362 12.5935 26.9813 12.6611 27.2367 12.6611C27.6123 12.6611 27.9655 12.5148 28.2311 12.2492C28.7794 11.7009 28.7794 10.8088 28.2311 10.2604L26.7395 8.76891C26.1912 8.22056 25.2991 8.22066 24.7508 8.76891C24.4852 9.03455 24.3389 9.38766 24.3389 9.76331C24.3389 10.0187 24.4065 10.2638 24.5333 10.4779L24.121 10.8902C24.0266 10.9846 23.8756 10.9973 23.7618 10.9206C22.8109 10.28 21.7595 9.8445 20.6367 9.6263C20.5031 9.60033 20.4062 9.48473 20.4062 9.35142V8.76802C21.0121 8.6115 21.4609 8.0603 21.4609 7.40625C21.4609 6.63084 20.8301 6 20.0547 6H17.9453C17.1699 6 16.5391 6.63084 16.5391 7.40625C16.5391 8.0603 16.9879 8.6115 17.5938 8.76802V9.35142C17.5938 9.48478 17.4969 9.60037 17.3633 9.6263C16.2405 9.8445 15.1891 10.28 14.2383 10.9206C14.1245 10.9973 13.9734 10.9846 13.879 10.8902L13.4663 10.4776C13.7841 9.93839 13.7117 9.23133 13.2492 8.76891C12.701 8.22066 11.8088 8.22056 11.2605 8.76891L9.76891 10.2604C9.22061 10.8087 9.22061 11.7009 9.76891 12.2492C10.0345 12.5148 10.3877 12.6611 10.7633 12.6611C11.0187 12.6611 11.2638 12.5935 11.4779 12.4667L11.8902 12.879C11.9846 12.9733 11.9973 13.1244 11.9206 13.2383C11.28 14.1891 10.8445 15.2405 10.6263 16.3633C10.6003 16.4969 10.4847 16.5938 10.3514 16.5938H9.76305C9.61103 16.0312 9.1248 15.5969 8.53267 15.5446H8.53263C8.13888 15.5095 7.74686 15.6423 7.45675 15.908C7.1665 16.1737 7 16.5518 7 16.9453V19.0547C7 19.4482 7.1665 19.8263 7.45675 20.092C7.74686 20.3577 8.13935 20.49 8.53263 20.4554C9.1248 20.4031 9.61103 19.9688 9.76305 19.4062H10.3514C10.4848 19.4062 10.6003 19.5031 10.6263 19.6367C10.8445 20.7595 11.28 21.8109 11.9206 22.7617C11.9973 22.8756 11.9845 23.0267 11.8902 23.121L11.4779 23.5333C11.2638 23.4065 11.0187 23.3389 10.7633 23.3389C10.3877 23.3389 10.0345 23.4852 9.76891 23.7508C9.50331 24.0164 9.35706 24.3695 9.35706 24.7452C9.35706 25.1208 9.50331 25.4739 9.76895 25.7395L11.2605 27.2311C11.5387 27.5093 11.9236 27.659 12.3171 27.6416C12.7101 27.6243 13.081 27.4406 13.3347 27.1377C13.7164 26.682 13.7531 26.0311 13.4628 25.5259L13.879 25.1098C13.9733 25.0154 14.1244 25.0026 14.2382 25.0794C15.1891 25.72 16.2405 26.1555 17.3632 26.3737C17.4968 26.3997 17.5937 26.5153 17.5937 26.6486V27.232C16.9878 27.3885 16.539 27.9397 16.539 28.5938C16.5391 29.3692 17.1699 30 17.9453 30ZM23.9237 24.0923C23.686 24.0923 23.4466 24.1612 23.2378 24.3019C22.3919 24.8719 21.4565 25.2593 20.4578 25.4534C19.8848 25.5647 19.4688 26.0674 19.4688 26.6486V27.5391C19.4688 27.8622 19.7316 28.125 20.0547 28.125C20.3132 28.125 20.5234 28.3353 20.5234 28.5938C20.5234 28.8522 20.3132 29.0625 20.0547 29.0625H17.9453C17.6868 29.0625 17.4766 28.8522 17.4766 28.5938C17.4766 28.3353 17.6868 28.125 17.9453 28.125C18.2684 28.125 18.5312 27.8622 18.5312 27.5391V26.6486C18.5312 26.0674 18.1152 25.5647 17.5421 25.4534C16.5434 25.2593 15.6081 24.8719 14.7621 24.3019C14.2771 23.9751 13.6269 24.036 13.216 24.4469L12.5713 25.0916C12.3511 25.3118 12.3511 25.6701 12.5713 25.8903C12.7499 26.0689 12.7696 26.3524 12.616 26.5358C12.5295 26.639 12.4086 26.6992 12.2758 26.705C12.142 26.7105 12.0175 26.6623 11.9233 26.5682L10.4318 25.0766C10.3432 24.9881 10.2945 24.8704 10.2945 24.7452C10.2945 24.62 10.3433 24.5023 10.4318 24.4138C10.6146 24.231 10.912 24.2311 11.0947 24.4138L11.1097 24.4288C11.3298 24.6489 11.6882 24.649 11.9084 24.4288L12.5531 23.784C12.964 23.3732 13.0249 22.7229 12.6981 22.2379C12.1281 21.392 11.7407 20.4566 11.5466 19.4579C11.4353 18.8848 10.9326 18.4688 10.3514 18.4688H9.4398C9.12841 18.4688 8.875 18.7221 8.875 19.0335C8.875 19.2862 8.68844 19.5005 8.45022 19.5215C8.31606 19.5332 8.18795 19.4904 8.08994 19.4006C7.99164 19.3106 7.93755 19.1878 7.93755 19.0547V16.9453C7.93755 16.8122 7.99164 16.6894 8.08994 16.5994C8.18805 16.5095 8.31667 16.4665 8.45022 16.4785C8.68844 16.4995 8.875 16.7138 8.875 16.9665C8.875 17.2778 9.12836 17.5312 9.4398 17.5312H10.3514C10.9326 17.5312 11.4353 17.1152 11.5466 16.5421C11.7407 15.5434 12.1281 14.6081 12.6981 13.7621C13.0249 13.2771 12.964 12.6268 12.5531 12.216L11.9234 11.5863C11.6949 11.3578 11.3232 11.3579 11.0947 11.5863C10.912 11.769 10.6145 11.7691 10.4318 11.5863C10.249 11.4035 10.249 11.1061 10.4318 10.9233L11.9233 9.43181C12.106 9.24914 12.4034 9.24895 12.5862 9.43181C12.769 9.61453 12.769 9.91195 12.5862 10.0947C12.3578 10.3232 12.3578 10.695 12.5862 10.9234L13.216 11.5532C13.6269 11.964 14.2771 12.0249 14.7621 11.6981C15.608 11.1282 16.5434 10.7407 17.5421 10.5466C18.1152 10.4353 18.5312 9.93263 18.5312 9.35142V8.46094C18.5312 8.13783 18.2684 7.875 17.9453 7.875C17.6868 7.875 17.4766 7.66472 17.4766 7.40625C17.4766 7.14778 17.6868 6.9375 17.9453 6.9375H20.0547C20.3132 6.9375 20.5234 7.14778 20.5234 7.40625C20.5234 7.66472 20.3132 7.875 20.0547 7.875C19.7316 7.875 19.4688 8.13783 19.4688 8.46094V9.35142C19.4688 9.93258 19.8848 10.4353 20.4579 10.5466C21.4566 10.7407 22.3919 11.1281 23.2379 11.6981C23.7229 12.0249 24.3731 11.964 24.784 11.5531L25.4137 10.9234C25.5243 10.8127 25.5853 10.6656 25.5853 10.509C25.5853 10.3524 25.5243 10.2052 25.4135 10.0946C25.2309 9.91195 25.2309 9.61453 25.4137 9.43177C25.5965 9.24891 25.8939 9.249 26.0766 9.43177L27.5682 10.9233C27.751 11.106 27.751 11.4034 27.5682 11.5862C27.4796 11.6748 27.3619 11.7235 27.2367 11.7235C27.1115 11.7235 26.9938 11.6748 26.9053 11.5863C26.6769 11.3578 26.3051 11.3578 26.0766 11.5862L25.4469 12.216C25.036 12.6268 24.9751 13.2771 25.3019 13.7621C25.8719 14.608 26.2593 15.5434 26.4534 16.5421C26.5647 17.1152 27.0674 17.5312 27.6486 17.5312H28.5636C28.8732 17.5312 29.125 17.2794 29.125 16.9699C29.125 16.7063 29.3279 16.4851 29.5772 16.4768C29.7055 16.4721 29.8275 16.5191 29.9195 16.6083C30.0117 16.6974 30.0625 16.8172 30.0625 16.9453V19.0322C30.0625 19.2941 29.8601 19.5143 29.6113 19.5232C29.4821 19.5279 29.3606 19.4812 29.2683 19.3921C29.1759 19.3029 29.125 19.183 29.125 19.0547C29.125 18.7316 28.8622 18.4688 28.5391 18.4688H27.6486C27.0674 18.4688 26.5647 18.8848 26.4534 19.4579C26.2593 20.4566 25.8719 21.3919 25.3019 22.2379C24.9751 22.7229 25.036 23.3732 25.4469 23.784L26.0916 24.4287C26.3118 24.6489 26.6701 24.6489 26.8903 24.4287L26.9053 24.4137C26.9938 24.3251 27.1115 24.2764 27.2367 24.2764C27.3619 24.2764 27.4796 24.3252 27.5681 24.4137C27.6567 24.5023 27.7054 24.6199 27.7054 24.7452C27.7054 24.8704 27.6567 24.9881 27.5682 25.0766L26.0766 26.5681C25.9825 26.6622 25.857 26.7109 25.7242 26.705C25.5913 26.6991 25.4705 26.639 25.3839 26.5357C25.2304 26.3524 25.25 26.0689 25.4286 25.8902C25.6488 25.6701 25.6488 25.3117 25.4287 25.0916L24.7839 24.4468C24.55 24.2129 24.2383 24.0923 23.9237 24.0923Z" fill="#6045E2"/>
<path d="M20.8106 16.0255C21.8962 16.0255 22.7794 15.1424 22.7794 14.0568C22.7794 12.9712 21.8962 12.088 20.8106 12.088C19.725 12.088 18.8419 12.9712 18.8419 14.0568C18.8419 15.1424 19.725 16.0255 20.8106 16.0255ZM20.8106 13.0255C21.3792 13.0255 21.8419 13.4882 21.8419 14.0568C21.8419 14.6254 21.3792 15.088 20.8106 15.088C20.242 15.088 19.7794 14.6254 19.7794 14.0568C19.7794 13.4882 20.242 13.0255 20.8106 13.0255Z" fill="#6045E2"/>
<path d="M22.1406 22.6784C23.0797 22.6784 23.8437 21.9143 23.8437 20.9753C23.8437 20.0362 23.0797 19.2721 22.1406 19.2721C21.2015 19.2721 20.4375 20.0362 20.4375 20.9753C20.4375 21.9143 21.2015 22.6784 22.1406 22.6784ZM22.1406 20.2096C22.5627 20.2096 22.9062 20.553 22.9062 20.9753C22.9062 21.3974 22.5627 21.7409 22.1406 21.7409C21.7184 21.7409 21.375 21.3974 21.375 20.9753C21.375 20.553 21.7184 20.2096 22.1406 20.2096Z" fill="#6045E2"/>
<path d="M15.7266 22.2119C17.1956 22.2119 18.4317 21.113 18.6018 19.6556C18.6319 19.3985 18.4477 19.1657 18.1906 19.1357C17.9334 19.1059 17.7007 19.2897 17.6707 19.547C17.5557 20.5318 16.7199 21.2744 15.7266 21.2744C14.6473 21.2744 13.7691 20.3963 13.7691 19.317C13.7691 18.3173 14.517 17.4809 15.5089 17.3714C15.7662 17.3431 15.9518 17.1114 15.9234 16.8541C15.895 16.5968 15.6631 16.4117 15.4061 16.4396C13.9384 16.6016 12.8316 17.8386 12.8316 19.317C12.8316 20.9133 14.1303 22.2119 15.7266 22.2119Z" fill="#6045E2"/>
<path d="M16.3281 14.5256C16.4514 14.5256 16.5723 14.4755 16.6595 14.3883C16.7467 14.3011 16.7969 14.1802 16.7969 14.0569C16.7969 13.9331 16.7468 13.8127 16.6595 13.7255C16.5723 13.6383 16.4514 13.5881 16.3281 13.5881C16.2048 13.5881 16.0839 13.6383 15.9968 13.7255C15.9096 13.8127 15.8594 13.9336 15.8594 14.0569C15.8594 14.1802 15.9095 14.3011 15.9968 14.3883C16.0839 14.4755 16.2048 14.5256 16.3281 14.5256Z" fill="#6045E2"/>
<path d="M19 24.0469C19.1233 24.0469 19.2442 23.9967 19.3314 23.9095C19.4186 23.8223 19.4688 23.7014 19.4688 23.5781C19.4688 23.4548 19.4186 23.3339 19.3314 23.2467C19.2442 23.1595 19.1238 23.1094 19 23.1094C18.8767 23.1094 18.7558 23.1595 18.6686 23.2467C18.5815 23.3339 18.5312 23.4548 18.5312 23.5781C18.5312 23.7014 18.5814 23.8223 18.6686 23.9095C18.7558 23.9967 18.8767 24.0469 19 24.0469Z" fill="#6045E2"/>
<path d="M24.2654 18.4749C24.3892 18.4749 24.5097 18.4247 24.5968 18.3375C24.6845 18.2503 24.7342 18.1294 24.7342 18.0061C24.7342 17.8824 24.6845 17.7619 24.5968 17.6747C24.5101 17.587 24.3891 17.5374 24.2654 17.5374C24.1422 17.5374 24.0212 17.587 23.934 17.6747C23.8469 17.7619 23.7967 17.8828 23.7967 18.0061C23.7967 18.1294 23.8468 18.2499 23.934 18.3375C24.0212 18.4247 24.1422 18.4749 24.2654 18.4749Z" fill="#6045E2"/>
</svg>
