<svg width="305" height="305" viewBox="0 0 305 305" fill="none" xmlns="http://www.w3.org/2000/svg">
<circle cx="152.5" cy="152.5" r="152.5" fill="#F1F2F2"/>
<g filter="url(#filter0_d)">
<path d="M197.818 229L214.455 218.02C221.926 213.095 228.051 206.417 232.286 198.582C236.521 190.747 238.734 181.996 238.727 173.11V103C238.727 86.2914 232.023 70.2671 220.089 58.4523C208.154 46.6375 191.968 40 175.091 40H75.0909V49C75.0909 58.5478 78.9221 67.7045 85.7416 74.4558C92.5611 81.2072 101.81 85 111.455 85H161.455C168.688 85 175.625 87.8446 180.739 92.9081C185.854 97.9716 188.727 104.839 188.727 112V139H197.818V229Z" fill="#58595B"/>
<path d="M175.091 40H166C174.357 40 182.632 41.6295 190.353 44.7956C198.073 47.9616 205.089 52.6022 210.998 58.4523C216.907 64.3024 221.594 71.2474 224.792 78.8909C227.99 86.5345 229.636 94.7267 229.636 103V173.11C229.643 181.996 227.43 190.747 223.195 198.582C218.961 206.417 212.835 213.095 205.364 218.02L197.818 223.002V229L214.455 218.02C221.926 213.095 228.051 206.417 232.286 198.582C236.521 190.747 238.734 181.996 238.727 173.11V103C238.727 86.2914 232.023 70.2671 220.089 58.4523C208.154 46.6375 191.968 40 175.091 40Z" fill="#4F5052"/>
<path d="M211.455 139H188.727V112C188.727 104.839 185.854 97.9716 180.739 92.9081C175.625 87.8446 168.688 85 161.455 85H111.455C106.632 85 102.008 86.8964 98.5981 90.2721C95.1883 93.6477 93.2727 98.2261 93.2727 103V121L77.1364 152.5H66L75.0909 233.5H102.364C106.989 233.507 111.589 232.809 116 231.43V265H197.818V184H202.364C207.186 184 211.81 182.104 215.22 178.728C218.63 175.352 220.545 170.774 220.545 166V148C220.538 145.615 219.578 143.33 217.875 141.644C216.172 139.958 213.863 139.007 211.455 139Z" fill="#FFA791"/>
<path d="M179.636 112V139H188.727V112C188.727 104.839 185.854 97.9716 180.739 92.9081C175.625 87.8446 168.688 85 161.455 85H152.364C159.597 85 166.534 87.8446 171.648 92.9081C176.763 97.9716 179.636 104.839 179.636 112Z" fill="#FF9478"/>
<path d="M211.455 139H202.364C204.772 139.007 207.081 139.958 208.784 141.644C210.487 143.33 211.447 145.615 211.455 148V166C211.455 170.774 209.539 175.352 206.129 178.728C202.719 182.104 198.095 184 193.273 184C192.067 184 190.911 184.474 190.059 185.318C189.206 186.162 188.727 187.307 188.727 188.5V265H197.818V184H202.364C207.186 184 211.81 182.104 215.22 178.728C218.63 175.352 220.545 170.774 220.545 166V148C220.538 145.615 219.578 143.33 217.875 141.644C216.172 139.958 213.863 139.007 211.455 139Z" fill="#FF9478"/>
<path d="M141.164 124.951L141.941 124.182C142.769 123.333 143.227 122.196 143.217 121.016C143.206 119.836 142.728 118.708 141.886 117.873C141.043 117.039 139.903 116.566 138.711 116.555C137.519 116.545 136.371 116.999 135.514 117.819L134.736 118.588C133.47 119.843 131.966 120.838 130.311 121.517C128.656 122.196 126.882 122.545 125.091 122.545C123.299 122.545 121.525 122.196 119.87 121.517C118.215 120.838 116.712 119.843 115.445 118.588L114.668 117.819C113.811 116.999 112.663 116.545 111.471 116.555C110.279 116.566 109.139 117.039 108.296 117.873C107.453 118.708 106.975 119.836 106.965 121.016C106.955 122.196 107.413 123.333 108.241 124.182L109.018 124.951C111.129 127.041 113.634 128.699 116.392 129.83C119.15 130.961 122.106 131.543 125.091 131.543C128.076 131.543 131.032 130.961 133.79 129.83C136.547 128.699 139.053 127.041 141.164 124.951Z" fill="#58595B"/>
<path d="M122.277 165.662L188.727 138.572V128.839L118.814 157.338L122.277 165.662Z" fill="#F1F2F2"/>
<path d="M122.491 224.068L197.818 193V184L118.6 215.932L122.491 224.068Z" fill="#F1F2F2"/>
<path d="M75.0909 233.5H102.364C108.333 233.5 114.244 232.336 119.758 230.075C125.273 227.813 130.284 224.498 134.505 220.32C138.726 216.141 142.074 211.18 144.358 205.721C146.642 200.261 147.818 194.409 147.818 188.5C147.818 178.952 143.987 169.795 137.168 163.044C130.348 156.293 121.099 152.5 111.455 152.5H66L75.0909 233.5Z" fill="#57A4FF"/>
<path d="M120.914 153.773C123.659 158.93 125.093 164.671 125.091 170.5C125.091 182.435 120.302 193.881 111.778 202.32C103.253 210.759 91.6917 215.5 79.6364 215.5H73.0727L75.0909 233.5H102.364C108.333 233.5 114.244 232.336 119.758 230.075C125.273 227.813 130.284 224.498 134.505 220.32C138.726 216.141 142.074 211.18 144.358 205.721C146.642 200.261 147.818 194.409 147.818 188.5C147.811 180.589 145.171 172.901 140.308 166.625C135.445 160.348 128.629 155.831 120.914 153.773Z" fill="#2488FF"/>
</g>
<defs>
<filter id="filter0_d" x="62" y="40" width="180.727" height="233" filterUnits="userSpaceOnUse" color-interpolation-filters="sRGB">
<feFlood flood-opacity="0" result="BackgroundImageFix"/>
<feColorMatrix in="SourceAlpha" type="matrix" values="0 0 0 0 0 0 0 0 0 0 0 0 0 0 0 0 0 0 127 0"/>
<feOffset dy="4"/>
<feGaussianBlur stdDeviation="2"/>
<feColorMatrix type="matrix" values="0 0 0 0 0 0 0 0 0 0 0 0 0 0 0 0 0 0 0.25 0"/>
<feBlend mode="normal" in2="BackgroundImageFix" result="effect1_dropShadow"/>
<feBlend mode="normal" in="SourceGraphic" in2="effect1_dropShadow" result="shape"/>
</filter>
</defs>
</svg>
