<svg width="600" height="600" viewBox="0 0 600 600" fill="none" xmlns="http://www.w3.org/2000/svg">
<rect width="600" height="600" fill="FFFFFF"/>
<circle cx="209.5" cy="299.5" r="142.5" fill="#4C96D7"/>
<mask id="path-3-inside-1" fill="white">
<rect x="145" y="197" width="129" height="206" rx="15"/>
</mask>
<rect x="145" y="197" width="129" height="206" rx="15" stroke="purple" stroke-width="34" mask="url(#path-3-inside-1)"/>
<path d="M399.133 227.305C399.133 224.909 398.924 222.891 398.508 221.25C398.091 219.583 397.557 218.216 396.906 217.148C396.281 216.081 395.591 215.26 394.836 214.688C394.107 214.089 393.417 213.659 392.766 213.398C392.115 213.112 391.568 212.956 391.125 212.93C390.708 212.878 390.487 212.852 390.461 212.852C388.664 212.852 387.023 213.346 385.539 214.336C384.055 215.299 382.779 216.784 381.711 218.789C380.669 220.768 379.849 223.268 379.25 226.289C378.677 229.284 378.391 232.799 378.391 236.836C378.391 240.872 378.651 244.414 379.172 247.461C379.719 250.508 380.474 253.06 381.438 255.117C382.401 257.174 383.56 258.724 384.914 259.766C386.294 260.807 387.831 261.328 389.523 261.328C390.799 261.224 391.984 260.755 393.078 259.922C393.547 259.583 394.016 259.141 394.484 258.594C394.979 258.047 395.435 257.37 395.852 256.562C396.294 255.755 396.698 254.818 397.062 253.75C397.427 252.656 397.714 251.393 397.922 249.961L404.172 250.43C403.885 252.383 403.456 254.115 402.883 255.625C402.31 257.109 401.646 258.411 400.891 259.531C400.161 260.625 399.367 261.549 398.508 262.305C397.674 263.06 396.841 263.685 396.008 264.18C394.029 265.326 391.893 265.977 389.602 266.133C386.555 266.133 383.833 265.521 381.438 264.297C379.068 263.047 377.062 261.211 375.422 258.789C373.807 256.341 372.57 253.307 371.711 249.688C370.878 246.068 370.461 241.888 370.461 237.148C370.461 227.279 372.141 219.831 375.5 214.805C378.859 209.753 384.042 207.227 391.047 207.227C391.125 207.227 391.385 207.24 391.828 207.266C392.297 207.292 392.883 207.383 393.586 207.539C394.289 207.695 395.083 207.943 395.969 208.281C396.854 208.594 397.753 209.062 398.664 209.688C399.576 210.312 400.461 211.094 401.32 212.031C402.18 212.969 402.948 214.141 403.625 215.547C404.302 216.927 404.836 218.555 405.227 220.43C405.643 222.305 405.852 224.466 405.852 226.914L399.133 227.305ZM442.648 241.719C442.648 245.469 442.206 248.828 441.32 251.797C440.461 254.766 439.276 257.292 437.766 259.375C436.281 261.432 434.523 263.021 432.492 264.141C430.461 265.234 428.299 265.781 426.008 265.781C423.69 265.781 421.516 265.208 419.484 264.062C417.453 262.917 415.682 261.289 414.172 259.18C412.661 257.07 411.464 254.544 410.578 251.602C409.719 248.633 409.289 245.339 409.289 241.719C409.289 238.62 409.667 235.794 410.422 233.242C411.203 230.664 412.31 228.451 413.742 226.602C415.201 224.753 416.958 223.32 419.016 222.305C421.099 221.263 423.43 220.742 426.008 220.742C428.872 220.742 431.346 221.263 433.43 222.305C435.513 223.32 437.232 224.753 438.586 226.602C439.966 228.451 440.982 230.664 441.633 233.242C442.31 235.794 442.648 238.62 442.648 241.719ZM436.594 241.797C436.594 239.453 436.385 237.318 435.969 235.391C435.552 233.464 434.901 231.81 434.016 230.43C433.156 229.023 432.062 227.943 430.734 227.188C429.406 226.432 427.831 226.055 426.008 226.055C424.367 226.055 422.883 226.432 421.555 227.188C420.253 227.943 419.146 229.023 418.234 230.43C417.323 231.81 416.62 233.464 416.125 235.391C415.63 237.318 415.383 239.453 415.383 241.797C415.383 244.531 415.656 247.005 416.203 249.219C416.776 251.432 417.531 253.333 418.469 254.922C419.432 256.51 420.552 257.734 421.828 258.594C423.13 259.453 424.523 259.883 426.008 259.883C427.466 259.883 428.833 259.466 430.109 258.633C431.411 257.799 432.531 256.602 433.469 255.039C434.432 253.477 435.188 251.589 435.734 249.375C436.307 247.135 436.594 244.609 436.594 241.797ZM479.758 209.141C477.336 218.411 475.083 227.656 473 236.875C470.943 246.094 468.977 255.391 467.102 264.766L457.023 264.688C456.086 260.026 455.161 255.378 454.25 250.742C453.339 246.107 452.414 241.471 451.477 236.836C450.539 232.201 449.562 227.578 448.547 222.969C447.557 218.359 446.49 213.75 445.344 209.141L452.648 209.336C454.055 217.409 455.552 225.456 457.141 233.477C458.729 241.471 460.461 249.557 462.336 257.734C464.055 249.609 465.695 241.536 467.258 233.516C468.82 225.469 470.37 217.344 471.906 209.141H479.758ZM492.18 212.266C492.18 212.917 492.049 213.529 491.789 214.102C491.555 214.648 491.229 215.13 490.812 215.547C490.396 215.938 489.901 216.25 489.328 216.484C488.781 216.719 488.195 216.836 487.57 216.836C486.945 216.836 486.346 216.719 485.773 216.484C485.227 216.25 484.745 215.938 484.328 215.547C483.938 215.13 483.612 214.648 483.352 214.102C483.117 213.529 483 212.917 483 212.266C483 211.641 483.117 211.055 483.352 210.508C483.612 209.935 483.938 209.453 484.328 209.062C484.745 208.646 485.227 208.32 485.773 208.086C486.346 207.852 486.945 207.734 487.57 207.734C488.195 207.734 488.781 207.852 489.328 208.086C489.901 208.32 490.396 208.646 490.812 209.062C491.229 209.453 491.555 209.935 491.789 210.508C492.049 211.055 492.18 211.641 492.18 212.266ZM490.695 225L490.031 264.023H484.68L484.133 224.531L490.695 225ZM509.797 208.594L509.641 221.562H517.414V226.523H509.562L509.016 264.844H504.211L503.898 226.523H495.109V221.562H503.898L503.82 208.203L509.797 208.594ZM551.633 243.086C551.581 245.716 551.503 248.333 551.398 250.938C551.346 252.057 551.294 253.229 551.242 254.453C551.19 255.677 551.125 256.914 551.047 258.164C550.995 259.388 550.917 260.599 550.812 261.797C550.734 262.995 550.656 264.115 550.578 265.156L545.227 265C545.279 264.245 545.318 263.503 545.344 262.773C545.37 262.044 545.383 261.315 545.383 260.586C544.211 261.836 542.974 262.812 541.672 263.516C540.37 264.219 539.133 264.753 537.961 265.117C536.607 265.56 535.266 265.846 533.938 265.977C533.651 266.029 533.378 266.055 533.117 266.055C532.883 266.055 532.622 266.055 532.336 266.055C530.513 266.055 528.768 265.794 527.102 265.273C525.435 264.779 523.951 264.01 522.648 262.969C521.372 261.927 520.344 260.625 519.562 259.062C518.807 257.474 518.43 255.612 518.43 253.477C518.43 251.602 518.794 249.844 519.523 248.203C520.279 246.536 521.32 245.091 522.648 243.867C524.003 242.617 525.63 241.628 527.531 240.898C529.432 240.169 531.542 239.779 533.859 239.727C533.938 239.727 534.38 239.753 535.188 239.805C535.995 239.857 536.971 240.026 538.117 240.312C539.289 240.573 540.539 241.003 541.867 241.602C543.221 242.174 544.471 242.982 545.617 244.023C545.617 242.852 545.591 241.615 545.539 240.312C545.487 239.01 545.357 237.734 545.148 236.484C544.966 235.208 544.667 233.997 544.25 232.852C543.833 231.706 543.26 230.703 542.531 229.844C541.828 228.958 540.93 228.268 539.836 227.773C538.742 227.253 537.414 226.992 535.852 226.992C534.628 226.992 533.508 227.227 532.492 227.695C531.477 228.164 530.578 228.802 529.797 229.609C529.016 230.417 528.365 231.38 527.844 232.5C527.323 233.594 526.932 234.779 526.672 236.055L520.109 233.945C520.422 232.461 520.865 231.146 521.438 230C522.036 228.854 522.701 227.852 523.43 226.992C524.185 226.133 524.979 225.404 525.812 224.805C526.672 224.18 527.518 223.659 528.352 223.242C530.305 222.279 532.414 221.693 534.68 221.484C537.805 221.484 540.448 221.953 542.609 222.891C544.771 223.828 546.516 225.208 547.844 227.031C549.198 228.854 550.161 231.107 550.734 233.789C551.333 236.471 551.633 239.57 551.633 243.086ZM545.539 253.945C545.539 253.424 545.552 252.917 545.578 252.422C545.604 251.901 545.617 251.406 545.617 250.938C544.237 249.531 542.87 248.464 541.516 247.734C540.188 247.005 538.977 246.458 537.883 246.094C536.633 245.677 535.422 245.443 534.25 245.391C532.635 245.391 531.242 245.625 530.07 246.094C528.924 246.536 527.974 247.135 527.219 247.891C526.49 248.646 525.943 249.505 525.578 250.469C525.24 251.432 525.07 252.435 525.07 253.477C525.07 254.544 525.266 255.508 525.656 256.367C526.047 257.227 526.594 257.956 527.297 258.555C528.026 259.154 528.898 259.622 529.914 259.961C530.956 260.273 532.115 260.43 533.391 260.43C534.641 260.326 535.943 260.039 537.297 259.57C538.469 259.154 539.758 258.516 541.164 257.656C542.596 256.771 544.055 255.534 545.539 253.945ZM565.734 209.883L564.953 264.766H560.305L559.523 209.414L565.734 209.883Z" fill="purple"/>
<path d="M235.361 256C235.361 256 226.936 264.173 217.825 267.468C150.356 291.872 178.811 339.429 179.739 339.586C179.739 339.586 183.522 332.997 188.633 329.239C221.064 305.398 227.655 277.955 227.655 277.955C227.655 277.955 220.378 310.977 191.526 331.525C185.154 336.061 180.839 347.229 179.012 358.391C179.012 358.391 183.529 356.566 185.472 356.072C186.229 351.129 187.813 346.396 190.49 342.168C230.814 346.969 244.021 314.476 245.746 303.146C249.818 276.388 235.361 256 235.361 256Z" fill="purple"/>
</svg>
