<svg width="107" height="107" viewBox="0 0 107 107" fill="none" xmlns="http://www.w3.org/2000/svg">
<circle cx="53.3355" cy="53.9484" r="52.4935" fill="#CFC7F6" stroke="#ACB3BA"/>
<path d="M51.7465 86.8902H57.7889C60.01 86.8902 61.8171 85.0832 61.8171 82.862C61.8171 80.9885 60.5314 79.4095 58.7959 78.9612V77.29C58.7959 76.908 59.0735 76.577 59.456 76.5026C62.6723 75.8776 65.6841 74.6302 68.4077 72.7951C68.7337 72.5751 69.1665 72.6119 69.4369 72.8821L70.629 74.074C69.7976 75.5212 69.9026 77.3858 70.9958 78.691C71.7228 79.5589 72.7852 80.0849 73.9109 80.1345C75.0365 80.183 76.1404 79.7556 76.9375 78.9587L81.2102 74.686C81.971 73.9252 82.3899 72.9138 82.3899 71.8377C82.3899 70.7616 81.971 69.75 81.2102 68.9892C80.4493 68.2284 79.4378 67.8095 78.3617 67.8095C77.63 67.8095 76.9281 68.0031 76.3147 68.3663L75.1336 67.1852C74.8633 66.9151 74.8268 66.4822 75.0466 66.156C76.8817 63.4324 78.1291 60.4206 78.7542 57.2045C78.8286 56.8218 79.1597 56.5443 79.5416 56.5443H81.2113C81.3936 57.2582 81.7709 57.9093 82.3165 58.4359C83.1103 59.2021 84.1544 59.6002 85.2594 59.563C87.4365 59.4854 89.1419 57.6888 89.1419 55.4729V49.4949C89.1419 48.3934 88.7058 47.365 87.9138 46.5991C87.1219 45.8335 86.0768 45.4321 84.9767 45.4691C83.1954 45.5284 81.69 46.8047 81.2299 48.4878H79.5417C79.1597 48.4878 78.8286 48.2103 78.7543 47.8277C78.1293 44.6115 76.8819 41.5997 75.0467 38.8761C74.8269 38.5499 74.8636 38.117 75.1338 37.8469L76.3148 36.6658C76.9282 37.029 77.6302 37.2226 78.3618 37.2226C79.4379 37.2226 80.4494 36.8037 81.2103 36.0429C82.7809 34.4723 82.7809 31.9166 81.2103 30.3459L76.9377 26.0734C75.3671 24.5027 72.8116 24.503 71.2409 26.0734C70.4801 26.8344 70.0611 27.8458 70.0611 28.9219C70.0611 29.6534 70.2548 30.3554 70.618 30.9689L69.4369 32.15C69.1665 32.4204 68.7338 32.4568 68.4078 32.237C65.6841 30.4019 62.6723 29.1545 59.4562 28.5294C59.0735 28.455 58.7959 28.1239 58.7959 27.742V26.0709C60.5314 25.6225 61.8171 24.0436 61.8171 22.1701C61.8171 19.9489 60.01 18.1418 57.7889 18.1418H51.7465C49.5254 18.1418 47.7183 19.9489 47.7183 22.1701C47.7183 24.0436 49.004 25.6225 50.7395 26.0709V27.742C50.7395 28.1241 50.4619 28.4552 50.0794 28.5294C46.8631 29.1545 43.8514 30.4019 41.1277 32.237C40.8017 32.4568 40.3688 32.4203 40.0985 32.15L38.9164 30.968C39.8266 29.4234 39.6192 27.398 38.2946 26.0734C36.7241 24.503 34.1684 24.5027 32.5977 26.0734L28.3251 30.3459C26.7545 31.9165 26.7545 34.4721 28.3251 36.0429C29.086 36.8037 30.0975 37.2226 31.1736 37.2226C31.9051 37.2226 32.6071 37.029 33.2206 36.6658L34.4017 37.8469C34.672 38.117 34.7085 38.5499 34.4887 38.8761C32.6536 41.5997 31.4062 44.6114 30.7811 47.8276C30.7067 48.2103 30.3756 48.4878 29.9937 48.4878H28.3083C27.8729 46.8764 26.48 45.6323 24.7839 45.4826H24.7838C23.6559 45.382 22.5329 45.7624 21.7019 46.5234C20.8705 47.2847 20.3935 48.3678 20.3935 49.4949V55.5372C20.3935 56.6643 20.8705 57.7474 21.7019 58.5087C22.5329 59.2696 23.6572 59.6488 24.7838 59.5495C26.48 59.3997 27.8729 58.1557 28.3083 56.5443H29.9937C30.3757 56.5443 30.7067 56.8218 30.7811 57.2044C31.4062 60.4206 32.6536 63.4324 34.4887 66.156C34.7085 66.4822 34.6718 66.9151 34.4017 67.1852L33.2206 68.3663C32.6071 68.0031 31.9051 67.8095 31.1736 67.8095C30.0975 67.8095 29.086 68.2284 28.3251 68.9892C27.5643 69.75 27.1454 70.7616 27.1454 71.8377C27.1454 72.9138 27.5643 73.9252 28.3252 74.686L32.5977 78.9587C33.3948 79.7557 34.4973 80.1843 35.6244 80.1345C36.7501 80.0849 37.8125 79.5589 38.5395 78.6912C39.6327 77.3858 39.738 75.5214 38.9063 74.074L40.0984 72.8821C40.3687 72.6118 40.8015 72.5751 41.1275 72.7951C43.8512 74.6302 46.863 75.8776 50.0791 76.5026C50.4618 76.577 50.7394 76.9081 50.7394 77.29V78.9612C49.0039 79.4095 47.7182 80.9885 47.7182 82.862C47.7183 85.0832 49.5254 86.8902 51.7465 86.8902ZM68.8719 69.9677C68.1908 69.9677 67.5051 70.1649 66.9069 70.568C64.4838 72.2006 61.8045 73.3105 58.9436 73.8664C57.3021 74.1853 56.1105 75.6252 56.1105 77.29V79.8408C56.1105 80.7664 56.8633 81.5193 57.7889 81.5193C58.5293 81.5193 59.1316 82.1216 59.1316 82.862C59.1316 83.6024 58.5293 84.2047 57.7889 84.2047H51.7465C51.0062 84.2047 50.4038 83.6024 50.4038 82.862C50.4038 82.1216 51.0062 81.5193 51.7465 81.5193C52.6721 81.5193 53.425 80.7664 53.425 79.8408V77.29C53.425 75.6253 52.2333 74.1853 50.5915 73.8664C47.7308 73.3104 45.0515 72.2006 42.6283 70.568C41.2389 69.6318 39.3763 69.8063 38.1995 70.9832L36.3526 72.8301C35.7219 73.4608 35.7219 74.4872 36.3526 75.1179C36.8643 75.6296 36.9205 76.4416 36.4808 76.9668C36.2328 77.2626 35.8866 77.4349 35.5061 77.4517C35.123 77.4675 34.7661 77.3294 34.4965 77.0597L30.224 72.7871C29.9702 72.5335 29.8307 72.1965 29.8307 71.8378C29.8307 71.479 29.9704 71.1419 30.224 70.8884C30.7475 70.3648 31.5995 70.3651 32.1229 70.8884L32.1659 70.9313C32.7964 71.562 33.8228 71.5622 34.4536 70.9313L36.3006 69.0844C37.4774 67.9076 37.6519 66.045 36.7158 64.6556C35.0831 62.2324 33.9732 59.5531 33.4173 56.6922C33.0984 55.0505 31.6586 53.8588 29.9937 53.8588H27.3824C26.4904 53.8588 25.7645 54.5845 25.7645 55.4767C25.7645 56.2003 25.2301 56.8142 24.5477 56.8744C24.1634 56.908 23.7964 56.7853 23.5157 56.528C23.2341 56.2703 23.0791 55.9184 23.0791 55.5372V49.4949C23.0791 49.1137 23.2341 48.7617 23.5157 48.5041C23.7967 48.2465 24.1652 48.1234 24.5477 48.1576C25.2301 48.2179 25.7645 48.8318 25.7645 49.5554C25.7645 50.4474 26.4902 51.1733 27.3824 51.1733H29.9937C31.6585 51.1733 33.0984 49.9816 33.4173 48.3398C33.9733 45.4791 35.0831 42.7998 36.7158 40.3766C37.6521 38.9871 37.4774 37.1245 36.3006 35.9478L34.4966 34.1438C33.842 33.4894 32.7774 33.4895 32.1228 34.1438C31.5994 34.6672 30.7474 34.6675 30.2239 34.1438C29.7003 33.6203 29.7003 32.7685 30.2239 32.2448L34.4965 27.9723C35.0196 27.4491 35.8716 27.4485 36.3954 27.9723C36.9189 28.4957 36.9189 29.3477 36.3954 29.8712C35.7409 30.5257 35.7409 31.5906 36.3954 32.2451L38.1994 34.049C39.3763 35.2258 41.2388 35.4004 42.6283 34.4642C45.0514 32.8316 47.7307 31.7217 50.5915 31.1658C52.2333 30.8467 53.425 29.4069 53.425 27.742V25.1912C53.425 24.2657 52.6721 23.5128 51.7465 23.5128C51.0062 23.5128 50.4038 22.9105 50.4038 22.1701C50.4038 21.4297 51.0062 20.8273 51.7465 20.8273H57.7889C58.5293 20.8273 59.1316 21.4297 59.1316 22.1701C59.1316 22.9105 58.5293 23.5128 57.7889 23.5128C56.8633 23.5128 56.1105 24.2657 56.1105 25.1912V27.742C56.1105 29.4068 57.3021 30.8467 58.9439 31.1656C61.8046 31.7217 64.4839 32.8314 66.9072 34.4641C68.2965 35.4002 70.1592 35.2258 71.3359 34.0489L73.1399 32.2449C73.4568 31.9279 73.6315 31.5064 73.6315 31.0581C73.6315 30.6095 73.4567 30.1879 73.1394 29.8708C72.6162 29.3477 72.6162 28.4957 73.1399 27.9722C73.6634 27.4484 74.5154 27.4487 75.0388 27.9722L79.3114 32.2447C79.835 32.7682 79.835 33.62 79.3114 34.1437C79.0578 34.3973 78.7206 34.537 78.362 34.537C78.0033 34.537 77.6662 34.3975 77.4127 34.1438C76.7583 33.4893 75.6934 33.4894 75.0388 34.1437L73.2348 35.9477C72.0581 37.1245 71.8835 38.9871 72.8197 40.3764C74.4523 42.7997 75.5622 45.479 76.1181 48.3398C76.437 49.9816 77.8768 51.1733 79.5417 51.1733H82.1629C83.0496 51.1733 83.7709 50.452 83.7709 49.5652C83.7709 48.8103 84.3521 48.1767 85.0663 48.1529C85.4338 48.1394 85.7832 48.274 86.0469 48.5296C86.311 48.7848 86.4564 49.1278 86.4564 49.4949V55.4729C86.4564 56.2229 85.8766 56.8538 85.1639 56.8791C84.794 56.8927 84.4459 56.759 84.1815 56.5037C83.9168 56.2482 83.7709 55.9049 83.7709 55.5372C83.7709 54.6117 83.0181 53.8588 82.0925 53.8588H79.5417C77.877 53.8588 76.437 55.0505 76.1181 56.6922C75.5621 59.5529 74.4523 62.2323 72.8197 64.6555C71.8834 66.045 72.0581 67.9076 73.2348 69.0843L75.0818 70.9312C75.7125 71.562 76.7389 71.5619 77.3696 70.9312L77.4125 70.8882C77.6662 70.6345 78.0032 70.4949 78.3618 70.4949C78.7205 70.4949 79.0578 70.6346 79.3113 70.8882C79.5649 71.1419 79.7046 71.4789 79.7046 71.8377C79.7046 72.1963 79.5651 72.5335 79.3114 72.787L75.0387 77.0596C74.7691 77.3291 74.4097 77.4685 74.0292 77.4516C73.6487 77.4348 73.3025 77.2625 73.0545 76.9666C72.6148 76.4415 72.671 75.6295 73.1826 75.1177C73.8134 74.4871 73.8134 73.4607 73.1827 72.83L71.3358 70.983C70.6656 70.3129 69.7729 69.9677 68.8719 69.9677Z" fill="#6045E2"/>
<path d="M59.9542 46.8606C63.0638 46.8606 65.5937 44.3307 65.5937 41.2211C65.5937 38.1114 63.0638 35.5815 59.9542 35.5815C56.8445 35.5815 54.3147 38.1114 54.3147 41.2211C54.3147 44.3307 56.8445 46.8606 59.9542 46.8606ZM59.9542 38.267C61.5831 38.267 62.9082 39.5922 62.9082 41.2211C62.9082 42.8499 61.5831 44.1751 59.9542 44.1751C58.3253 44.1751 57.0002 42.8499 57.0002 41.2211C57.0002 39.5922 58.3253 38.267 59.9542 38.267Z" fill="#6045E2"/>
<path d="M63.764 65.9177C66.4541 65.9177 68.6426 63.7292 68.6426 61.0391C68.6426 58.3491 66.4541 56.1604 63.764 56.1604C61.074 56.1604 58.8855 58.3491 58.8855 61.0391C58.8855 63.7292 61.074 65.9177 63.764 65.9177ZM63.764 58.8459C64.9733 58.8459 65.9571 59.8297 65.9571 61.0391C65.9571 62.2484 64.9733 63.2322 63.764 63.2322C62.5548 63.2322 61.5709 62.2484 61.5709 61.0391C61.5709 59.8297 62.5548 58.8459 63.764 58.8459Z" fill="#6045E2"/>
<path d="M45.391 64.5812C49.5991 64.5812 53.1399 61.4332 53.6272 57.2586C53.7133 56.5221 53.1857 55.8553 52.4492 55.7692C51.7125 55.6838 51.0459 56.2106 50.9599 56.9473C50.6306 59.7684 48.2365 61.8957 45.391 61.8957C42.2993 61.8957 39.7838 59.3804 39.7838 56.2886C39.7838 53.425 41.9263 51.0291 44.7674 50.7155C45.5044 50.6343 46.0362 49.9707 45.9548 49.2337C45.8734 48.4965 45.2092 47.9664 44.4729 48.0463C40.2687 48.5102 37.0983 52.0537 37.0983 56.2886C37.0983 60.8612 40.8184 64.5812 45.391 64.5812Z" fill="#6045E2"/>
<path d="M47.1141 42.5637C47.4672 42.5637 47.8136 42.42 48.0634 42.1702C48.3131 41.9205 48.4568 41.5741 48.4568 41.2209C48.4568 40.8664 48.3133 40.5213 48.0634 40.2716C47.8136 40.022 47.4672 39.8782 47.1141 39.8782C46.7609 39.8782 46.4145 40.0218 46.1649 40.2716C45.9151 40.5213 45.7713 40.8678 45.7713 41.2209C45.7713 41.5741 45.915 41.9205 46.1649 42.1702C46.4145 42.42 46.7609 42.5637 47.1141 42.5637Z" fill="#6045E2"/>
<path d="M54.7677 69.8376C55.1208 69.8376 55.4673 69.6939 55.717 69.444C55.9668 69.1944 56.1104 68.848 56.1104 68.4948C56.1104 68.1417 55.9669 67.7953 55.717 67.5455C55.4673 67.2958 55.1222 67.1521 54.7677 67.1521C54.4146 67.1521 54.0681 67.2956 53.8185 67.5455C53.5688 67.7953 53.425 68.1417 53.425 68.4948C53.425 68.848 53.5686 69.1944 53.8185 69.444C54.0681 69.6939 54.4146 69.8376 54.7677 69.8376Z" fill="#6045E2"/>
<path d="M69.8507 53.8764C70.2052 53.8764 70.5502 53.7327 70.8 53.483C71.0511 53.2332 71.1934 52.8868 71.1934 52.5337C71.1934 52.1792 71.0511 51.8341 70.8 51.5843C70.5515 51.3332 70.205 51.1909 69.8507 51.1909C69.4975 51.1909 69.1511 51.3332 68.9014 51.5843C68.6517 51.8341 68.5079 52.1805 68.5079 52.5337C68.5079 52.8868 68.6516 53.2319 68.9014 53.483C69.1511 53.7327 69.4975 53.8764 69.8507 53.8764Z" fill="#6045E2"/>
</svg>
